<svg height="1580" width="770" xmlns="http://www.w3.org/2000/svg"><path d="m766 366v100" fill="none" stroke="#f80" stroke-width="9"/><path d="m766 768v-200" fill="none" stroke="#888" stroke-width="9"/><g fill-rule="evenodd"><g><rect fill="#222" height="1580" rx="80" width="767"/><rect fill="#fff" fill-opacity=".133" height="18" rx="5" width="80" x="343.5" y="80"/><g fill="#00f" fill-opacity=".267"><circle cx="459" cy="76.25" r="15"/><circle cx="297.25" cy="74" r="17.5"/></g></g><g fill="#fff"><rect fill-opacity=".133" height="25" rx="10" width="50" x="358.5" y="34"/><rect fill-opacity=".133" height="15" rx="5" width="220" x="273.5" y="1526"/><path d="m83.5 38c-27.7 0-50 22.3-50 50v1360c0 16.62 13.38 30 30 30h640c16.62 0 30-13.38 30-30v-1360c0-27.7-22.3-50-50-50h-140c-19.39 0-35 15.61-35 35v4c0 24.93-20.07 45-45 45h-160c-24.93 0-45-20.07-45-45v-4c0-19.39-15.61-35-35-35h-70z" fill-opacity=".867"/></g></g></svg>