<svg xmlns="http://www.w3.org/2000/svg" xmlns:xlink="http://www.w3.org/1999/xlink" viewBox="0 0 10 10" height="10mm" width="10mm"><defs><linearGradient xlink:href="#a" gradientUnits="userSpaceOnUse" gradientTransform="scale(1.57482) rotate(-90 18 6)" x2="24" id="b"/><linearGradient id="a"><stop offset="0" stop-color="#d7687d"/><stop offset="1" stop-color="#b21402"/></linearGradient></defs><path d="M18.898 0C8.466 0 0 8.466 0 18.898c0 10.431 8.466 18.897 18.898 18.897 10.431 0 18.897-8.466 18.897-18.897C37.795 8.466 29.33 0 18.898 0" fill="url(#b)" transform="scale(.26458)"/><path d="M.36 5C.36 7.56 2.44 9.64 5 9.64c2.56 0 4.64-2.08 4.64-4.64C9.64 2.44 7.56.36 5 .36 2.44.36.36 2.44.36 5" fill="#eb3941"/><path d="M3 3l4 4M7 3L3 7" stroke="#fff" stroke-width="1.0001124"/></svg>