<svg xmlns="http://www.w3.org/2000/svg" viewBox="203.28 149.413 16 16" width="16" height="16"><g fill="none"><path d="M4.2.678c-1.12 0-1.68-.001-2.108.217a2 2 0 0 0-.873.875C1 2.197 1 2.756 1 3.877v5.6a104.578 104.578 0 0 0 0 .45v5.145c0 .223.27.335.428.178L4 12.676h7.8c1.12 0 1.68 0 2.108-.217a2 2 0 0 0 .873-.873c.218-.428.219-.99.219-2.11V3.878c0-1.12 0-1.68-.219-2.107a2 2 0 0 0-.873-.875c-.428-.218-.987-.217-2.107-.217H4.199zm2.8 2h2v4.5H7v-4.5zm0 6h2v2H7v-2z" transform="translate(203.28 149.413)" style="fill:#000;fill-opacity:1"/><path mask="url(#path-4-outside-2)" d="M9 5v-.5h-.5V5zm2 0h.5v-.5H11zM9 9.5h-.5v.5H9zm2 0v.5h.5v-.5zM9 11v-.5h-.5v.5zm2 0h.5v-.5H11zm-2 2h-.5v.5H9zm2 0v.5h.5V13zM9 5.5h2v-1H9zm.5 4V5h-1v4.5zM11 9H9v1h2zm-.5-4v4.5h1V5zM9 11.5h2v-1H9zm.5 1.5v-2h-1v2zm1.5-.5H9v1h2zm-.5-1.5v2h1v-2z" transform="translate(201.28 147.09)"/></g></svg>