<svg xmlns="http://www.w3.org/2000/svg" viewBox="203.28 149.413 16 16" width="16" height="16"><g fill="none"><path style="fill:#000;fill-opacity:1" d="M4.2.678c-1.12 0-1.68-.001-2.108.217a2 2 0 0 0-.873.875C1 2.197 1 2.756 1 3.877v5.6a104.578 104.578 0 0 0 0 .45v5.145c0 .223.27.335.428.178L4 12.676h7.8c1.12 0 1.68 0 2.108-.217a2 2 0 0 0 .873-.873c.218-.428.219-.99.219-2.11V3.878c0-1.12 0-1.68-.219-2.107a2 2 0 0 0-.873-.875c-.428-.218-.987-.217-2.107-.217H4.199zm1.353 2.431L8 5.557l2.45-2.448 1.052 1.053-2.45 2.447L11.5 9.057l-1.05 1.052-2.448-2.447-2.45 2.447L4.5 9.057l2.45-2.448L4.5 4.16l1.053-1.05z" transform="translate(203.28 149.413)"/><g style="opacity:1"><path style="color:#000;font-style:normal;font-variant:normal;font-weight:400;font-stretch:normal;font-size:medium;line-height:normal;font-family:sans-serif;font-variant-ligatures:normal;font-variant-position:normal;font-variant-caps:normal;font-variant-numeric:normal;font-variant-alternates:normal;font-variant-east-asian:normal;font-feature-settings:normal;font-variation-settings:normal;text-indent:0;text-align:start;text-decoration:none;text-decoration-line:none;text-decoration-style:solid;text-decoration-color:#000;letter-spacing:normal;word-spacing:normal;text-transform:none;writing-mode:lr-tb;direction:ltr;text-orientation:mixed;dominant-baseline:auto;baseline-shift:baseline;text-anchor:start;white-space:normal;shape-padding:0;shape-margin:0;inline-size:0;clip-rule:nonzero;display:inline;overflow:visible;visibility:visible;isolation:auto;mix-blend-mode:normal;color-interpolation:sRGB;color-interpolation-filters:linearRGB;solid-color:#000;solid-opacity:1;vector-effect:none;fill:red;fill-opacity:1;fill-rule:nonzero;stroke:none;stroke-width:1.48711;stroke-linecap:butt;stroke-linejoin:miter;stroke-miterlimit:4;stroke-dasharray:none;stroke-dashoffset:0;stroke-opacity:1;color-rendering:auto;image-rendering:auto;shape-rendering:auto;text-rendering:auto;enable-background:accumulate;stop-color:#000;stop-opacity:1" d="m214.255 153.048-5.95 5.947zm-5.95-.001 5.95 5.948"/></g></g></svg>