<svg viewBox="0 0 128 128" xmlns="http://www.w3.org/2000/svg" xmlns:xlink="http://www.w3.org/1999/xlink"><linearGradient id="a" x1="49.994%" x2="49.994%" y1=".226%" y2="99.725%"><stop offset="0" stop-color="#212121" stop-opacity=".04"/><stop offset=".66" stop-color="#212121" stop-opacity="0"/></linearGradient><linearGradient id="b"><stop offset="0" stop-color="#fff" stop-opacity=".1"/><stop offset="1" stop-color="#fff" stop-opacity="0"/></linearGradient><linearGradient id="c" x1="36.626%" x2="64.01%" xlink:href="#b" y1="20.358%" y2="100.652%"/><linearGradient id="d"><stop offset="0" stop-color="#262626" stop-opacity=".1"/><stop offset="1" stop-color="#262626" stop-opacity="0"/></linearGradient><linearGradient id="e" x1="68.935%" x2="31.065%" xlink:href="#d" y1="65.756%" y2="35.799%"/><linearGradient id="f" x1="62.531%" x2="24.779%" xlink:href="#d" y1="13.086%" y2="100.996%"/><linearGradient id="g" x1="0%" xlink:href="#d" y1="50%" y2="50%"/><radialGradient id="h" cx="10.128%" cy="14.269%" gradientTransform="matrix(.68182 0 0 1 .032 0)" r="144.566%" xlink:href="#b"/><radialGradient id="i" cx="14.489%" cy="14.584%" r="99.973%" xlink:href="#b"/><g fill="none" fill-rule="evenodd"><path d="m0 0h128v128h-128z"/><g transform="translate(5.333 5.333)"><circle cx="58.667" cy="58.667" fill="#0535c1" fill-rule="nonzero" r="58.667"/><path d="m71.333 26.667h34.667v34.667h-34.667z"/><g transform="translate(72.778 33.889)"><g fill-rule="nonzero"><path d="m24.556 7.222h-3.51c-1.488-4.21-5.497-7.222-10.213-7.222-5.98 0-10.833 4.853-10.833 10.833s4.853 10.834 10.833 10.834h13.723a7.225 7.225 0 0 0 7.222-7.223 7.225 7.225 0 0 0 -7.222-7.222z" fill="#eaeaea"/><path d="m31.778 14.531v-.087a7.225 7.225 0 0 0 -7.222-7.222h-3.612v.18h3.612a7.224 7.224 0 0 1 7.222 7.13z" fill="#fff" fill-opacity=".2"/><path d="m35.497 21.667h-24.664l10.22-14.445z" fill="url(#a)"/></g><g transform="translate(8.666 -2.167)"><image height="23.111" opacity=".1" width="15.167"/><path d="m2.167 2.167 5.857 18.496c1.956-1.965 4.976-4.673 4.976-7.663 0-5.98-4.853-10.833-10.833-10.833z" fill="#e1e1e1" fill-rule="nonzero"/></g><g fill-rule="nonzero"><circle cx="10.833" cy="10.833" fill="#eee" r="10.833"/><path d="m10.833.18c5.951 0 10.783 4.803 10.834 10.747v-.086c0-5.98-4.854-10.834-10.834-10.834-5.98 0-10.833 4.846-10.833 10.826v.087c.05-5.937 4.882-10.74 10.833-10.74z" fill="#fff" fill-opacity=".2"/><path d="m24.556 21.486h-13.723c-5.95 0-10.782-4.803-10.833-10.746v.087c0 5.98 4.853 10.833 10.833 10.833h13.723a7.225 7.225 0 0 0 7.222-7.222v-.086a7.226 7.226 0 0 1 -7.222 7.135z" fill="#212121" fill-opacity=".1"/></g></g><g fill-rule="nonzero"><path d="m24.556 7.222h-3.51c-1.488-4.21-5.497-7.222-10.213-7.222-5.98 0-10.833 4.853-10.833 10.833s4.853 10.834 10.833 10.834h13.723a7.225 7.225 0 0 0 7.222-7.223 7.225 7.225 0 0 0 -7.222-7.222z" fill="url(#h)" transform="translate(72.778 33.889)"/><path d="m42.667 24.667h30.667v26.667h-30.667z" fill="#fff176"/><path d="m39.333 65.333h36.667v36.667h-36.667z" fill="#fff"/><path d="m80 48.667h5.333v10.666h-53.333v-10.666h5.333v-21.334l21.334-13.333 21.333 13.333zm-10.667 0v-15.422l-10.666-6.665-10.667 6.665v15.422z" fill="#f4481e"/><path d="m29.631 109.656 9.036-60.99h40l9.035 60.99c-8.561 4.886-18.472 7.677-29.035 7.677s-20.474-2.791-29.036-7.677zm40.979-42.589-25.094 8.154-3.05 20.585 30.914-10.046-2.77-18.694z" fill="#f4481e"/><path d="m79.949 59.333 7.455 50.323c-8.561 4.886-18.472 7.677-29.035 7.677s-20.474-2.791-29.036-7.677l7.456-50.323h-4.789v-10.666h5.333v-21.334l21.334-13.333 21.333 13.333v21.334h5.333v10.666h-5.383z" fill="url(#c)"/><path d="m58.667 48.667h-21.334v-21.334l21.334-13.333z" fill="url(#e)"/><path d="m58.667 117.333a58.62 58.62 0 0 1 -29.036-7.677l6.685-50.323h22.35v58z" fill="url(#f)"/><path d="m32 48.667h26.667v10.667h-26.667z" fill="url(#g)" transform="matrix(-1 0 0 1 90.667 0)"/><circle cx="58.667" cy="58.667" fill="url(#i)" r="58.667"/></g><path d="m12.667 38h40v40h-40z"/><g transform="translate(14.333 46.333)"><g fill-rule="nonzero"><path d="m28.333 8.333h-4.05c-1.716-4.858-6.341-8.333-11.783-8.333-6.9 0-12.5 5.6-12.5 12.5s5.6 12.5 12.5 12.5h15.833c4.6 0 8.334-3.733 8.334-8.333s-3.734-8.334-8.334-8.334z" fill="#fafafa"/><path d="m36.667 16.767v-.1c0-4.6-3.734-8.334-8.334-8.334h-4.166v.209h4.166a8.335 8.335 0 0 1 8.334 8.225z" fill="#fff" fill-opacity=".2"/><path d="m40.958 25h-28.458l11.792-16.667z" fill="url(#a)"/></g><g transform="translate(10 -2.5)"><image height="26.667" opacity=".1" width="17.5"/><path d="m2.5 2.5 6.758 21.342c2.259-2.267 5.742-5.392 5.742-8.842 0-6.9-5.6-12.5-12.5-12.5z" fill="#e1e1e1" fill-rule="nonzero"/></g><g fill-rule="nonzero"><circle cx="12.5" cy="12.5" fill="#fff" r="12.5"/><path d="m12.5.208c6.867 0 12.442 5.542 12.5 12.4v-.1c0-6.9-5.6-12.5-12.5-12.5s-12.5 5.592-12.5 12.492v.1c.058-6.85 5.633-12.392 12.5-12.392z" fill="#fff" fill-opacity=".2"/><path d="m28.333 24.792h-15.833c-6.867 0-12.442-5.542-12.5-12.4v.1c0 6.9 5.6 12.5 12.5 12.5h15.833c4.6 0 8.334-3.734 8.334-8.334v-.1c-.059 4.559-3.767 8.234-8.334 8.234z" fill="#212121" fill-opacity=".1"/></g></g><g fill-rule="nonzero"><path d="m28.333 8.333h-4.05c-1.716-4.858-6.341-8.333-11.783-8.333-6.9 0-12.5 5.6-12.5 12.5s5.6 12.5 12.5 12.5h15.833c4.6 0 8.334-3.733 8.334-8.333s-3.734-8.334-8.334-8.334z" fill="url(#h)" transform="translate(14.333 46.333)"/><g opacity=".1"><path d="m58.667.613c32.3 0 58.493 26.1 58.66 58.36 0-.1.006-.2.006-.306 0-32.4-26.266-58.667-58.666-58.667s-58.667 26.267-58.667 58.667c0 .1.007.2.007.306.166-32.26 26.36-58.36 58.66-58.36z" fill="#fff"/><path d="m117.327 58.36c-.167 32.26-26.36 58.36-58.66 58.36s-58.494-26.1-58.66-58.36c0 .107-.007.207-.007.307 0 32.4 26.267 58.666 58.667 58.666s58.666-26.266 58.666-58.666c0-.1-.006-.2-.006-.307z" fill="#263238"/></g><circle cx="58.667" cy="58.667" fill="url(#i)" r="58.667"/></g></g></g></svg>