<svg xmlns="http://www.w3.org/2000/svg" xmlns:xlink="http://www.w3.org/1999/xlink" height="112" width="112" viewBox="0 -16 112 112"><defs><linearGradient id="a"><stop stop-color="#d7687d" offset="0"/><stop stop-color="#b21402" offset="1"/></linearGradient><linearGradient id="b"><stop stop-color="#606eda" offset="0"/><stop stop-color="#021db2" offset="1"/></linearGradient><linearGradient x2="24" gradientTransform="matrix(0 -.41667 -.41667 0 25 10)" gradientUnits="userSpaceOnUse" id="m" xlink:href="#a"/><linearGradient y2="104" x2="127" y1="104" x1="113" gradientTransform="translate(-.714 -69.286) scale(.71429)" gradientUnits="userSpaceOnUse" id="k" xlink:href="#b"/></defs><path d="M3 36h10v9.008A1.99 1.99 0 0111 47H5c-1.105 0-2-.9-2-1.992zm-1-2h12v1H2zm3-1h6v1H5zM29.526 38.25h-1.474v-.75c0-.414-.33-.75-.737-.75h-1.473V36c0-.414-.33-.75-.737-.75h-.737v-1.5a.743.743 0 00-.494-.7.494.494 0 00-.243-.05C19.968 33 17 36.022 17 39.75s2.968 6.75 6.631 6.75c3.663 0 6.632-3.022 6.632-6.75V39c0-.414-.33-.75-.737-.75zm-9.947 2.25c-.611 0-1.106-.503-1.106-1.125s.495-1.125 1.106-1.125c.61 0 1.105.503 1.105 1.125s-.495 1.125-1.105 1.125zm1.105-4.125c0-.622.495-1.125 1.105-1.125.611 0 1.106.503 1.106 1.125 0 .621-.495 1.125-1.106 1.125-.61 0-1.105-.504-1.105-1.125zM22.894 45c-.61 0-1.105-.503-1.105-1.125 0-.62.495-1.125 1.105-1.125.611 0 1.106.504 1.106 1.125 0 .622-.495 1.125-1.106 1.125zm.369-3.75c-.61 0-1.105-.504-1.105-1.125S22.653 39 23.263 39s1.105.504 1.105 1.125-.495 1.125-1.105 1.125zm3.684 1.5c-.61 0-1.105-.504-1.105-1.125s.495-1.125 1.105-1.125 1.105.504 1.105 1.125-.495 1.125-1.105 1.125z" fill="#212121"/><path d="M40 38c3.314 0 6-.895 6-2s-2.686-2-6-2-6 .895-6 2 2.686 2 6 2zm-6 7c0 1.105 2.686 2 6 2s6-.895 6-2v-2c0 1.105-2.686 2-6 2s-6-.895-6-2zm0-3c0 1.105 2.686 2 6 2s6-.895 6-2v-2c0 1.105-2.686 2-6 2s-6-.895-6-2zm0-3c0 1.105 2.686 2 6 2s6-.895 6-2v-2c0 1.105-2.686 2-6 2s-6-.895-6-2z"/><g fill="none"><path d="M48 32h16v16H48z"/><path d="M57 33h-5.005c-.54 0-.995.45-.995 1.007v11.986A1 1 0 0051.995 47h8.01c.54 0 .995-.451.995-1.007V37l-4-4zm3.29 4H57v-3.29z" fill="#000"/></g><path d="M6.5 51.229V49h3v2.229a4.994 4.994 0 011.88 1.087l1.932-1.115 1.5 2.598-1.93 1.115a5.018 5.018 0 010 2.173l1.93 1.114-1.5 2.598-1.931-1.115A4.995 4.995 0 019.5 60.771v2.23h-3v-2.23a4.994 4.994 0 01-1.88-1.087L2.687 60.8l-1.5-2.598 1.93-1.114a5.018 5.018 0 010-2.173l-1.93-1.115 1.5-2.598 1.931 1.115A4.995 4.995 0 016.5 51.23zM8 58.5a2.5 2.5 0 100-5 2.5 2.5 0 000 5zM18 51.999a1 1 0 01.99-.999H24v3h-6v-2.001zM18 59h6v3h-5.01a.992.992 0 01-.99-.999V59zm0-4h6v3h-6zm7-4h5.01c.546 0 .99.443.99.999V54h-6v-3zm0 8h6v2.001a1 1 0 01-.99.999H25v-3zm0-4h6v3h-6z" fill="#212121"/><path d="M39.5 61a5.5 5.5 0 100-11 5.5 5.5 0 000 11zm0-2.2v-2.2h-3.3v-2.2h3.3v-2.2l3.3 3.3z"/><g transform="translate(-26 25)"><circle r="2.5" cy="11.5" cx="10.5" transform="matrix(1.2 0 0 1.2 72.4 21.2)" fill="#009802"/><path d="M78 25c-.544 0-1 .45-1 1v8c0 .54.45 1 1 1h3.031a3.533 3.533 0 01-.031-.5c0-.17.008-.337.031-.5H78v-8h3v3h3v1.5c.163-.023.33 0 .5 0 .17 0 .337-.023.5 0V28l-3-3zm4 1l2 2h-2z"/></g><path d="M8 66H3.997a1 1 0 00-.997.995v8.01c0 .54.446.995.997.995h6.006a1 1 0 00.997-.995V69l-3-3zm0 1l2 2H8zm-4 0h3v3h3v5H4z"/><path d="M17 71.5a6.5 6.5 0 1013 0 6.5 6.5 0 00-13 0" fill="#9f9f9f"/><path d="M27 69.43l-.93-.93-2.57 2.57-2.57-2.57-.93.93L22.57 72 20 74.57l.93.93 2.57-2.57 2.57 2.57.93-.93L24.43 72z" fill-opacity=".36"/><path d="M27 68.93l-.93-.93-2.57 2.57L20.93 68l-.93.93 2.57 2.57L20 74.07l.93.93 2.57-2.57L26.07 75l.93-.93-2.57-2.57z" fill="#fff"/><path d="M33 71.5a6.5 6.5 0 1013 0 6.5 6.5 0 00-13 0" fill="#bebebe"/><path d="M43 69.43l-.93-.93-2.57 2.57-2.57-2.57-.93.93L38.57 72 36 74.57l.93.93 2.57-2.57 2.57 2.57.93-.93L40.43 72z" fill-opacity=".37"/><path d="M43 68.93l-.93-.93-2.57 2.57L36.93 68l-.93.93 2.57 2.57L36 74.07l.93.93 2.57-2.57L42.07 75l.93-.93-2.57-2.57z" fill="#fff"/><g transform="translate(49 65)"><path d="M118 96c-3.87 0-7 3.13-7 7s3.13 7 7 7 7-3.13 7-7-3.13-7-7-7" transform="translate(-111 -96)" fill="url(#c)"/><path d="M.5 7a6.5 6.5 0 1013 0 6.5 6.5 0 00-13 0" fill="#f27d82"/><path d="M10.5 4.93L9.57 4 7 6.57 4.43 4l-.93.93L6.07 7.5 3.5 10.07l.93.93L7 8.43 9.57 11l.93-.93L7.93 7.5z" fill-opacity=".36"/><path d="M10.5 4.43l-.93-.93L7 6.07 4.43 3.5l-.93.93L6.07 7 3.5 9.57l.93.93L7 7.93l2.57 2.57.93-.93L7.93 7z" fill="#fff"/><defs><linearGradient id="d"><stop offset="0" stop-color="#d7687d"/><stop offset="1" stop-color="#b21402"/></linearGradient><linearGradient xlink:href="#d" gradientUnits="userSpaceOnUse" gradientTransform="matrix(0 -.58333 -.58333 0 118 110)" x2="24" id="c"/></defs></g><g transform="translate(1 81)"><path d="M103 110c3.87 0 7-3.13 7-7s-3.13-7-7-7-7 3.13-7 7 3.13 7 7 7" transform="translate(-96 -96)" fill="url(#e)"/><path d="M103 96.5a6.5 6.5 0 100 13 6.5 6.5 0 000-13" transform="translate(-96 -96)" fill="url(#f)"/><path d="M10.5 4.93L9.57 4 7 6.57 4.43 4l-.93.93L6.07 7.5 3.5 10.07l.93.93L7 8.43 9.57 11l.93-.93L7.93 7.5z" fill="#993c35"/><path d="M10.5 4.43l-.93-.93L7 6.07 4.43 3.5l-.93.93L6.07 7 3.5 9.57l.93.93L7 7.93l2.57 2.57.93-.93L7.93 7z" fill="#fff"/><defs><linearGradient xlink:href="#g" gradientUnits="userSpaceOnUse" gradientTransform="rotate(90 103 103)" y2="103" y1="103" x2="109.5" x1="96.5" id="f"/><linearGradient id="g"><stop offset="0" stop-color="#e59290"/><stop offset="1" stop-color="#e99890"/></linearGradient><linearGradient xlink:href="#h" gradientUnits="userSpaceOnUse" gradientTransform="rotate(90 112 95)" y2="104" y1="104" x2="127" x1="113" id="e"/><linearGradient id="h"><stop offset="0" stop-color="#c0544f"/><stop offset="1" stop-color="#d08481"/></linearGradient></defs></g><path d="M26.27 90.92a4.5 4.5 0 11.73-.684l2.346 2.346-.707.707zm-2.692-.106a3.5 3.5 0 100-7 3.5 3.5 0 000 7z" fill="#5b5b5b"/><text y="91.208" x="-11.403" style="line-height:0%" font-weight="400" font-family="sans-serif" letter-spacing="0" word-spacing="0" fill="#b3b3b3"><tspan style="line-height:1.25" y="91.208" x="-11.403" font-size="10">1</tspan></text><text y="75.675" x="-11.144" style="line-height:0%" font-weight="400" font-family="sans-serif" letter-spacing="0" word-spacing="0" fill="#b3b3b3"><tspan style="line-height:1.25" y="75.675" x="-11.144" font-size="10">2</tspan></text><text y="60.143" x="-11.066" style="line-height:0%" font-weight="400" font-family="sans-serif" letter-spacing="0" word-spacing="0" fill="#b3b3b3"><tspan style="line-height:1.25" y="60.143" x="-11.066" font-size="10">3</tspan></text><text y="44.611" x="-11.266" style="line-height:0%" font-weight="400" font-family="sans-serif" letter-spacing="0" word-spacing="0" fill="#b3b3b3"><tspan style="line-height:1.25" y="44.611" x="-11.266" font-size="10">4</tspan></text><text y="108.082" x="5.935" style="line-height:0%" font-weight="400" font-family="sans-serif" letter-spacing="0" word-spacing="0" fill="#b3b3b3"><tspan style="line-height:1.25" y="108.082" x="5.935" font-size="10">a</tspan></text><text y="108.082" x="21.659" style="line-height:0%" font-weight="400" font-family="sans-serif" letter-spacing="0" word-spacing="0" fill="#b3b3b3"><tspan style="line-height:1.25" y="108.082" x="21.659" font-size="10">b</tspan></text><text y="108.082" x="37.384" style="line-height:0%" font-weight="400" font-family="sans-serif" letter-spacing="0" word-spacing="0" fill="#b3b3b3"><tspan style="line-height:1.25" y="108.082" x="37.384" font-size="10">c</tspan></text><text y="108.082" x="53.108" style="line-height:0%" font-weight="400" font-family="sans-serif" letter-spacing="0" word-spacing="0" fill="#b3b3b3"><tspan style="line-height:1.25" y="108.082" x="53.108" font-size="10">d</tspan></text><g fill="none"><path d="M32 80h16v16H32z"/><path d="M40 81c-3.864 0-7 3.136-7 7s3.136 7 7 7 7-3.136 7-7-3.136-7-7-7zm-5.5 7c0-3.032 2.468-5.5 5.5-5.5s5.5 2.468 5.5 5.5-2.468 5.5-5.5 5.5a5.507 5.507 0 01-5.5-5.5zm6.5 4v-5h-2v5zm-2-6h2v-2h-2z" fill="#000"/></g><g mask="url(#i)" transform="matrix(1.39974 0 0 1.39343 65.054 81.02)"><path d="M1 9l4-8 4 8z" stroke="#c19600" stroke-width="2" stroke-linejoin="round"/><path d="M1 9l4-8 4 8z" fill="#f4bd00" stroke="#f5bd00" stroke-width="1.5" stroke-linejoin="round"/><path d="M3.75 2.75h2.5v2.5L5.75 7h-1.5l-.5-1.75v-2.5m0 5.25h2.5v1.25h-2.5" fill="#ad8601"/><mask id="i"><path fill="#fff" d="M0 0h10v10H0z"/><path d="M64 3h2v2.25L65.5 7h-1L64 5.25V3m0 5h2v1h-2" transform="translate(-60)"/></mask></g><g mask="url(#j)" transform="matrix(1.36 0 0 1.34 65.3 65.5)"><path d="M85 0c-2.76 0-5 2.24-5 5s2.24 5 5 5 5-2.24 5-5-2.24-5-5-5" transform="translate(-80)" fill="url(#k)"/><path d="M.36 5C.36 7.56 2.44 9.64 5 9.64c2.56 0 4.64-2.08 4.64-4.64C9.64 2.44 7.56.36 5 .36 2.44.36.36 2.44.36 5" fill="#2a53cd"/><mask id="j"><path fill="#fff" d="M0 0h10v10H0z"/><path d="M83.93 2.14c-.03-.53.55-.97 1.06-.83.5.12.79.73.56 1.18-.2.44-.79.61-1.2.36a.812.812 0 01-.42-.71zm1.7 5.46h.67v.53h-2.89V7.6h.66V3.99h-.66v-.53h2.22z" transform="translate(-80)"/></mask></g><g mask="url(#l)" transform="matrix(1.37 0 0 1.36 65.2 49.3)"><path d="M25 0c-2.76 0-5 2.24-5 5s2.24 5 5 5 5-2.24 5-5-2.24-5-5-5" transform="translate(-20)" fill="url(#m)"/><path d="M.36 5C.36 7.56 2.44 9.64 5 9.64c2.56 0 4.64-2.08 4.64-4.64C9.64 2.44 7.56.36 5 .36 2.44.36.36 2.44.36 5" fill="#eb3941"/><mask id="l"><path fill="#fff" d="M0 0h10v10H0z"/><path d="M23 3l4 4M27 3l-4 4" transform="translate(-20)" stroke="#000"/></mask></g><path d="M72 33.333A6.67 6.67 0 0065.333 40 6.67 6.67 0 0072 46.667 6.67 6.67 0 0078.667 40 6.67 6.67 0 0072 33.333zm0 2c1.107 0 2 .894 2 2 0 1.107-.893 2-2 2s-2-.893-2-2c0-1.106.893-2 2-2zm0 9.467a4.8 4.8 0 01-4-2.147c.02-1.326 2.667-2.053 4-2.053 1.327 0 3.98.727 4 2.053a4.8 4.8 0 01-4 2.147z"/><path d="M64 32h16v16H64z" fill="none"/><text y="28.118" x="-10.738" style="line-height:0%;-inkscape-font-specification:Sans;text-align:start" font-weight="400" font-family="sans-serif" letter-spacing="0" word-spacing="0" fill-opacity=".373"><tspan style="line-height:1.25" y="28.118" x="-10.738" font-size="10">5</tspan></text><text y="107.697" x="68.649" style="line-height:0%;-inkscape-font-specification:Sans;text-align:start" font-weight="400" font-family="sans-serif" letter-spacing="0" word-spacing="0" fill-opacity=".351"><tspan style="line-height:1.25" y="107.697" x="68.649" font-size="10">e</tspan></text><path d="M65.25 24.75h1.5v-1.5h-1.5zm0 3h1.5v-1.5h-1.5zm0-6h1.5v-1.5h-1.5zm3 3h10.5v-1.5h-10.5zm0 3h10.5v-1.5h-10.5zm0-7.5v1.5h10.5v-1.5z"/><path d="M63 15h18v18H63zM47 79h18v18H47z" fill="none"/><path d="M62 85h-2.107a4.489 4.489 0 00-1.365-1.47l1.222-1.222-1.057-1.058-1.628 1.627a4.439 4.439 0 00-2.122 0l-1.635-1.627-1.058 1.058 1.215 1.222A4.547 4.547 0 0052.108 85H50v1.5h1.568a4.978 4.978 0 00-.068.75V88H50v1.5h1.5v.75c0 .255.03.503.068.75H50v1.5h2.108A4.498 4.498 0 0056 94.75a4.498 4.498 0 003.893-2.25H62V91h-1.567c.037-.248.067-.495.067-.75v-.75H62V88h-1.5v-.75c0-.255-.03-.503-.067-.75H62zm-4.5 6h-3v-1.5h3zm0-3h-3v-1.5h3z"/><g fill="none"><path opacity=".2" d="M48 16h16v16H48z"/><path d="M48.5 30h15L56 17zm8.5-2h-2v-2h2zm0-3h-2v-3h2z" fill="#000"/></g><text y="23.902" x="32.47" style="line-height:0%" font-weight="400" font-family="sans-serif" letter-spacing="0" word-spacing="0"><tspan style="line-height:1.25" y="23.902" x="32.47" font-weight="700" font-size="10">A</tspan></text><text y="31.525" x="40.363" style="line-height:0%" font-weight="400" font-family="sans-serif" letter-spacing="0" word-spacing="0"><tspan style="line-height:1.25" y="31.525" x="40.363" font-weight="700" font-size="10">B</tspan></text><path d="M37.955 29.089c-1.915-.292-2.12-.9-2.237-4.13h-1.22c.047 3.856.062 5.297 5.736 5.258l.316-.014-2.595-2.996a39.95 39.95 0 000 1.882z"/><g fill="none" fill-rule="evenodd"><path d="M0 16h16v16H0z"/><g fill="#000" fill-rule="nonzero"><path d="M9.58 27.313l1.417 1.294c-.86.577-1.89.913-2.997.913-3.004 0-5.44-2.471-5.44-5.52 0-.917.22-1.782.61-2.543l1.417 1.294c-.138.39-.214.81-.214 1.249 0 2.032 1.624 3.68 3.627 3.68.567 0 1.103-.132 1.58-.367zm1.826-2.046c.143-.395.22-.822.22-1.267 0-2.032-1.623-3.68-3.626-3.68-.573 0-1.116.135-1.598.375l-1.414-1.292A5.36 5.36 0 018 18.48c3.004 0 5.44 2.471 5.44 5.52 0 .924-.224 1.795-.619 2.56z"/><path d="M8 25.84v5.52l3.022-2.76zM8 22.16v-5.52L4.978 19.4z"/></g></g><g fill="none" fill-rule="evenodd"><path fill="#000" d="M20 20h2v6h-2zM26 22h2v6h-2z"/><path fill="#000" fill-rule="nonzero" d="M17.333 20.667h7.334l-3.667-4zM30.667 27.333h-7.334l3.667 4z"/><path d="M16 16h16v16H16z"/></g><text y="11.352" x="-10.547" style="line-height:0%;-inkscape-font-specification:Sans;text-align:start" font-weight="400" font-family="sans-serif" letter-spacing="0" word-spacing="0" fill-opacity=".373"><tspan style="line-height:1.25" y="11.352" x="-10.547" font-size="10">6</tspan></text><text y="108.235" x="85.725" style="line-height:0%;-inkscape-font-specification:Sans;text-align:start" font-weight="400" font-family="sans-serif" letter-spacing="0" word-spacing="0" fill-opacity=".351"><tspan style="line-height:1.25" y="108.235" x="85.725" font-size="10">f</tspan></text><path d="M1 1h14v14H1z" fill="none"/><path d="M12.288 6.857A4.37 4.37 0 004.12 5.69 3.497 3.497 0 001 9.167c0 1.93 1.57 3.5 3.5 3.5h7.583A2.918 2.918 0 0015 9.75a2.903 2.903 0 00-2.712-2.893zM24.044 15a1.44 1.44 0 001.435-1.436h-2.871c0 .79.639 1.436 1.436 1.436zm4.307-4.308v-3.59c0-2.204-1.177-4.049-3.23-4.537v-.488C25.12 1.48 24.639 1 24.044 1c-.596 0-1.077.481-1.077 1.077v.488c-2.06.488-3.231 2.326-3.231 4.538v3.59L18.3 12.127v.718h11.487v-.718z"/><path d="M32 0h16v16H32z" fill="none"/><path d="M45.333 2.667H34.667c-.74 0-1.327.593-1.327 1.333l-.007 8c0 .74.594 1.333 1.334 1.333h10.666c.74 0 1.334-.593 1.334-1.333V4c0-.74-.594-1.333-1.334-1.333zm0 9.333H34.667V8h10.666zm0-6.667H34.667V4h10.666zM55.993 1.333A6.663 6.663 0 0049.333 8c0 3.68 2.98 6.667 6.66 6.667A6.67 6.67 0 0062.667 8a6.67 6.67 0 00-6.674-6.667zm.007 12A5.332 5.332 0 0150.667 8 5.332 5.332 0 0156 2.667 5.332 5.332 0 0161.333 8 5.332 5.332 0 0156 13.333z"/><path d="M48 0h16v16H48z" fill="none"/><path d="M56.333 4.667h-1v4l3.5 2.1.5-.82-3-1.78z"/><path fill-rule="evenodd" clip-rule="evenodd" d="M85 18.5a1.5 1.5 0 011.5-1.5h7a1.5 1.5 0 011.5 1.5v6a1.5 1.5 0 01-1.5 1.5h-1v2.5A1.5 1.5 0 0191 30h-8.5a1.5 1.5 0 01-1.5-1.5v-8a1.5 1.5 0 011.5-1.5H85zm1.5 0h7v6h-7zM85 22h-2.5v6.5H91V26h-4.5a1.5 1.5 0 01-1.5-1.5z" fill="#000"/><g fill="#000"><path fill-rule="evenodd" clip-rule="evenodd" d="M90.35 46l.988 1.853 1.324-.706-8-15-1.324.706L83.95 34H82.5a1.5 1.5 0 00-1.5 1.5v9a1.5 1.5 0 001.5 1.5zm-.8-1.5l-.8-1.5H85v-5h1.083l-.533-1H82.5v7.5zM86.617 39H86v3h2.217z"/><path d="M94.5 44.5a1.5 1.5 0 01-.768 1.31L93 44.437V37h-3.967l-1.6-3H93a1.5 1.5 0 011.5 1.5z"/><path d="M92 42.563l-1-1.876V39h-.9l-.533-1H92z"/></g><g fill="#000" fill-rule="evenodd" clip-rule="evenodd"><path d="M85 6h7v5h-7zm1 1h5v3h-5z"/><path d="M82.5 2A1.5 1.5 0 0081 3.5v9a1.5 1.5 0 001.5 1.5H93a1.5 1.5 0 001.5-1.5v-9A1.5 1.5 0 0093 2zm0 10.5V5H93v7.5z"/></g><g fill="none"><path fill-rule="evenodd" clip-rule="evenodd" d="M65 3.5A1.5 1.5 0 0166.5 2H77a1.5 1.5 0 011.5 1.5v9A1.5 1.5 0 0177 14H66.5a1.5 1.5 0 01-1.5-1.5zM66.5 5v7.5H77V5z" fill="#000"/></g><g fill="#000"><path d="M85.146 53.646L82.793 56l2.353 2.354.708-.708L84.207 56l1.647-1.646zM89.485 52.121l-2 8-.97-.242 2-8zM90.854 53.646L93.207 56l-2.353 2.354-.708-.708L91.793 56l-1.647-1.646z"/><path fill-rule="evenodd" clip-rule="evenodd" d="M95 56a7 7 0 11-14 0 7 7 0 0114 0zm-1 0a6 6 0 11-12 0 6 6 0 0112 0z"/></g><g fill="none"><path fill-rule="evenodd" clip-rule="evenodd" d="M95 72a7 7 0 11-14 0 7 7 0 0114 0zm-5 5.659a6 6 0 01-5-10.856v6.49l-1.146-1.147-.708.708 2.354 2.353 2.354-2.353-.708-.708L86 73.293V66.34a6 6 0 015 10.856v-6.49l1.146 1.147.708-.708-2.354-2.353-2.354 2.353.708.708L90 70.707z" fill="#000"/></g><g fill="none"><path fill="#000" d="M92.875 92.48v-7c-3.458 0-6.917-.002-10.375.02v6.98zM82 82a1 1 0 00-1 1v9.48a1.5 1.5 0 001.5 1.5h10.375a1.5 1.5 0 001.5-1.5v-7a1.5 1.5 0 00-1.5-1.5H87.99a.99.99 0 01-.99-.99.99.99 0 00-.99-.99z" clip-rule="evenodd" fill-rule="evenodd"/></g><g fill="#000"><path d="M106.35 46l.988 1.853 1.324-.706-8-15-1.324.706L99.95 34H98.5a1.5 1.5 0 00-1.5 1.5v9a1.5 1.5 0 001.5 1.5zm-.8-1.5l-4-7.5H98.5v7.5z" clip-rule="evenodd" fill-rule="evenodd"/><path d="M110.5 44.5a1.5 1.5 0 01-.768 1.31L109 44.437V37h-3.967l-1.6-3H109a1.5 1.5 0 011.5 1.5z"/></g><text style="line-height:0%;-inkscape-font-specification:Sans;text-align:start" x="101.23" y="107.702" font-weight="400" font-family="sans-serif" letter-spacing="0" word-spacing="0" fill-opacity=".351"><tspan x="101.23" y="107.702" style="line-height:1.25" font-size="10">g</tspan></text><g fill="none"><path fill="#000" d="M110 88a6 6 0 10-12 0 6 6 0 0012 0zm1 0a7 7 0 10-14 0 7 7 0 0014 0zm-10 2h5.072l1.636-2-1.636-2H101zm-1 0a1 1 0 001 1h5.072a1 1 0 00.774-.367l1.636-2a1 1 0 000-1.266l-1.637-2a1 1 0 00-.773-.367H101a1 1 0 00-1 1z" clip-rule="evenodd" fill-rule="evenodd"/></g><g fill="none"><path d="M104 64.5c-4.14 0-7.5 3.36-7.5 7.5 0 4.14 3.36 7.5 7.5 7.5 4.14 0 7.5-3.36 7.5-7.5 0-4.14-3.36-7.5-7.5-7.5zm0 13.5c-3.308 0-6-2.693-6-6 0-3.308 2.692-6 6-6s6 2.692 6 6-2.692 6-6 6zm-1.5-4.35l-1.95-1.95-1.05 1.05 3 3 6-6-1.05-1.05z" fill="#000"/></g><g fill="none"><path d="M104 48.5c-4.14 0-7.5 3.36-7.5 7.5 0 4.14 3.36 7.5 7.5 7.5 4.14 0 7.5-3.36 7.5-7.5 0-4.14-3.36-7.5-7.5-7.5zm0 13.5c-3.315 0-6-2.685-6-6 0-1.388.473-2.662 1.268-3.675l8.407 8.408A5.927 5.927 0 01104 62zm4.732-2.325l-8.407-8.408A5.927 5.927 0 01104 50c3.315 0 6 2.685 6 6a5.927 5.927 0 01-1.268 3.675z" fill="#000"/></g><g fill="none"><path d="M103.25 26.25h1.5v1.5h-1.5zm0-6h1.5v4.5h-1.5zm.742-3.75c-4.14 0-7.492 3.36-7.492 7.5 0 4.14 3.353 7.5 7.492 7.5 4.148 0 7.508-3.36 7.508-7.5 0-4.14-3.36-7.5-7.508-7.5zM104 30c-3.315 0-6-2.685-6-6s2.685-6 6-6 6 2.685 6 6-2.685 6-6 6z" fill="#000"/></g><g fill="#000"><path d="M109.333 1.333H98.667c-.734 0-1.327.6-1.327 1.334l-.007 12L100 12h9.333c.734 0 1.334-.6 1.334-1.333v-8c0-.734-.6-1.334-1.334-1.334zm0 9.334h-9.886l-.394.393-.386.387v-8.78h10.666zm-6-2.667h1.334v1.333h-1.334zm0-4h1.334v2.667h-1.334z"/><text y="-25.169" x="-114.706" style="line-height:1.25" font-weight="400" font-size="5.333" font-family="sans-serif" transform="translate(96)"><tspan y="-25.169" x="-114.706">Sprites are deprecated, do not modify this file.</tspan><tspan y="-18.502" x="-114.706">See readme in front_end/Images for the new workflow.</tspan></text></g></svg>