<svg width="16" height="16" fill="none" xmlns="http://www.w3.org/2000/svg"><path d="m11.09 7.485.546-.536c-2.28-2.234-5.986-2.234-8.272 0l1.181 1.158c1.596-1.563 4.165-1.597 5.803-.101.226-.2.474-.376.741-.521z" fill="#000"/><path d="M2.182 5.792 1 4.634c3.593-3.512 9.413-3.512 13 0l-1.182 1.158c-2.937-2.876-7.7-2.876-10.636 0zM7.5 11 5.727 9.264c.981-.96 2.57-.96 3.546 0L7.5 11zM15.292 11.294c.013-.096.022-.192.022-.294 0-.102-.01-.198-.022-.294l.651-.495a.149.149 0 0 0 .037-.192l-.617-1.038a.157.157 0 0 0-.188-.066l-.768.3a2.27 2.27 0 0 0-.521-.294l-.117-.795A.15.15 0 0 0 13.617 8h-1.233a.15.15 0 0 0-.151.126l-.117.795c-.189.075-.361.177-.522.294l-.768-.3a.152.152 0 0 0-.188.066l-.617 1.038a.145.145 0 0 0 .037.192l.651.495a2.322 2.322 0 0 0-.021.294c0 .099.009.198.021.294l-.65.495a.148.148 0 0 0-.038.192l.617 1.038c.037.066.12.09.188.066l.768-.3c.16.12.333.219.522.294l.117.795a.15.15 0 0 0 .15.126h1.235a.15.15 0 0 0 .15-.126l.118-.795c.188-.075.36-.177.521-.294l.768.3c.071.027.151 0 .188-.066l.617-1.038a.149.149 0 0 0-.037-.192l-.65-.495zm-2.291.756c-.595 0-1.08-.471-1.08-1.05 0-.579.485-1.05 1.08-1.05.595 0 1.08.471 1.08 1.05 0 .579-.485 1.05-1.08 1.05z" fill="#000"/></svg>