<svg height="32" width="80" xmlns="http://www.w3.org/2000/svg"><g fill="none"><path d="M50 19.732A1.73 1.73 0 0151.726 18h9.548c.953 0 1.726.769 1.726 1.732v8.536A1.73 1.73 0 0161.274 30h-9.548A1.725 1.725 0 0150 28.268zM56 22h1v-1h-1zm0 5h1v-4h-1z" fill="#000"/><path d="M64 32V16h16v16z"/><path d="M67.719 18c-.952 0-1.719.762-1.719 1.719v8.562c0 .963.765 1.719 1.719 1.719h9.562c.952 0 1.719-.762 1.719-1.719V19.72c0-.963-.765-1.719-1.719-1.719H67.72zm4.781 2a2 2 0 012 2c0 .44-.184.84-.469 1.125l-.437.469c-.36.365-.594.656-.594 1.406h-1v-.25a2 2 0 01.594-1.406l.625-.625A.998.998 0 0073.5 22c0-.55-.45-1-1-1s-1 .45-1 1h-1a2 2 0 012-2zm-.5 6h1v1h-1z" fill="#000"/><g transform="translate(0 16)"><path d="M0 0h16v16H0z" opacity=".2"/><rect fill="#000" height="8" rx="1" width="8" x="4" y="4"/></g><g transform="translate(16 16)"><path d="M0 0h16v16H0z" opacity=".2"/><rect fill="#000" height="8" rx="4" width="8" x="4" y="4"/></g><path d="M32 16h16v16H32z" opacity=".2"/><path d="M35 28l5-9 5 9z" fill="#000"/><path d="M32 0h16v16H32z" opacity=".2"/><path d="M32.5 14h15L40 1zm8.5-2h-2v-2h2zm0-3h-2V6h2z" fill="#000"/><path d="M32 0v16H16V0z"/><path d="M24 1c-3.864 0-7 3.136-7 7s3.136 7 7 7 7-3.136 7-7-3.136-7-7-7zm-5.5 7c0-3.032 2.468-5.5 5.5-5.5s5.5 2.468 5.5 5.5-2.468 5.5-5.5 5.5A5.507 5.507 0 0118.5 8zm6.5 4V7h-2v5zm-2-6h2V4h-2z" fill="#000"/><path d="M16 0v16H0V0z"/><path d="M10.5 6.5v-1A2.5 2.5 0 008 3c-1.38.01-2.5 1.12-2.5 2.5v1H5c-.55 0-1 .45-1 .996V12.5c0 .55.45 1 1 1h6c.55 0 1-.45 1-1v-5c0-.528-.45-1-1-1zm-4 .01V5.5C6.5 4.67 7.17 4 8 4s1.5.67 1.5 1.5v1.01z" fill="#000"/><path d="M160-32V0h-32v-32z"/><path d="M0-32h32V0H0zM32-32h32V0H32zM64-32h32V0H64zM64-64h32v32H64z" opacity=".2"/><path d="M64-64v32H32v-32zM32-64v32H0v-32z"/></g></svg>