<svg xmlns="http://www.w3.org/2000/svg" xmlns:xlink="http://www.w3.org/1999/xlink" height="110" width="130"><defs><linearGradient xlink:href="#a" gradientUnits="userSpaceOnUse" gradientTransform="translate(-.714 -69.286) scale(.71429)" y2="104" y1="104" x2="127" x1="113" id="y"/><linearGradient id="a"><stop offset="0" stop-color="#606eda"/><stop offset="1" stop-color="#021db2"/></linearGradient><linearGradient xlink:href="#b" gradientUnits="userSpaceOnUse" gradientTransform="matrix(0 -.41667 -.41667 0 25 10)" x2="24" id="A"/><linearGradient id="b"><stop offset="0" stop-color="#d7687d"/><stop offset="1" stop-color="#b21402"/></linearGradient></defs><path d="M0 20.995c0-.55.456-.995.995-.995h8.01c.55 0 .995.455.995.995v8.01c0 .549-.456.995-.995.995H.995C.445 30 0 29.544 0 29.004zm5.123 4.744C7.691 25.312 8.75 24.546 8.75 22h-1.5c0 1.62-.44 1.939-2.373 2.26-2.568.429-3.627 1.194-3.627 3.74h1.5c0-1.62.44-1.937 2.373-2.26zM23.65 27.21l-1.44-2.03L21 26.39 23.55 30 30 22.33 28.88 21z"/><path d="M6.5 46c0 .55.45 1 1 1s1-.45 1-1-.45-1-1-1-1 .45-1 1" fill="#bababa"/><path d="M5.75 42.75L2.25 46l3.5 3.25" fill="none" stroke="#bababa" stroke-width="1.5"/><path d="M27.5 42.43l-.93-.93L24 44.07l-2.57-2.57-.93.93L23.07 45l-2.57 2.57.93.93L24 45.93l2.57 2.57.93-.93L24.93 45l2.57-2.57z" fill-opacity=".24"/><path d="M27.5 41.93l-.93-.93L24 43.57 21.43 41l-.93.93 2.57 2.57-2.57 2.57.93.93L24 45.43 26.57 48l.93-.93-2.57-2.57 2.57-2.57z" fill="#676767"/><path d="M43.25 20c-.7 0-1.25.5-1.25 1.25v7.5c0 .7.5 1.25 1.25 1.25h3.5c.7 0 1.25-.5 1.25-1.25v-7.5c0-.7-.5-1.25-1.25-1.25zM43 21h4v7h-4zm2 7.25c.4 0 .75.3.75.75 0 .4-.3.75-.75.75-.4 0-.75-.3-.75-.75 0-.4.3-.75.75-.75z"/><g transform="translate(40 40)"><path d="M25 0c-2.76 0-5 2.24-5 5s2.24 5 5 5 5-2.24 5-5-2.24-5-5-5" transform="translate(-20)" fill="url(#c)"/><path d="M.36 5C.36 7.56 2.44 9.64 5 9.64c2.56 0 4.64-2.08 4.64-4.64C9.64 2.44 7.56.36 5 .36 2.44.36.36 2.44.36 5" fill="#eb3941"/><path d="M3 3l4 4M7 3L3 7" stroke="#fff"/><defs><linearGradient id="d"><stop offset="0" stop-color="#d7687d"/><stop offset="1" stop-color="#b21402"/></linearGradient><linearGradient xlink:href="#d" gradientUnits="userSpaceOnUse" gradientTransform="matrix(0 -.41667 -.41667 0 25 10)" x2="24" id="c"/></defs></g><path d="M4.5 61.3l4 3.7-4 3.7v-1.2H1.425l.075-5h3z" fill="#adf2ad" stroke="#007200"/><g transform="translate(20 60)"><path d="M144.95 10A5.002 5.002 0 01140 4.95 5.002 5.002 0 01145.05 0c2.76.03 4.98 2.29 4.95 5.05a5.002 5.002 0 01-5.05 4.95z" transform="translate(-140)" fill="url(#e)"/><path d="M9.5 5.05A4.494 4.494 0 014.95 9.5 4.494 4.494 0 01.5 4.95 4.494 4.494 0 015.05.5C7.54.53 9.53 2.56 9.5 5.05z" fill="#00be00"/><path d="M145.08.53c1.97.02 3.55 1.06 3.54 2.32-.01 1.26-1.62 2.26-3.59 2.24-1.97-.02-3.55-1.06-3.54-2.32.01-1.26 1.62-2.26 3.59-2.24z" transform="translate(-140)" fill="url(#f)"/><path d="M144.98 9.41c1.66.02 3.01-.68 3.02-1.56.01-.88-1.33-1.61-2.98-1.63-1.66-.02-3.01.68-3.02 1.56-.01.88 1.33 1.61 2.98 1.63z" transform="translate(-140)" fill="url(#g)"/><defs><linearGradient id="h"><stop offset="0" stop-opacity="0" stop-color="#00d600"/><stop offset="1" stop-opacity=".81" stop-color="#d8fc7b"/></linearGradient><linearGradient id="i"><stop offset="0" stop-color="#00ba00"/><stop offset="1" stop-opacity=".91" stop-color="#fff"/></linearGradient><linearGradient id="j"><stop offset="0" stop-color="#00a104"/><stop offset="1" stop-color="#00c605"/></linearGradient><linearGradient xlink:href="#h" gradientUnits="userSpaceOnUse" gradientTransform="matrix(-.0048 .4396 .78038 .00853 65.608 -94.834)" y2="103.16" y1="103.16" x2="235.12" x1="227.88" id="g"/><linearGradient xlink:href="#i" gradientUnits="userSpaceOnUse" gradientTransform="matrix(.00687 -.62923 .9267 .01012 47.871 147.44)" y2="103.16" y1="103.16" x2="235.12" x1="227.88" id="f"/><linearGradient xlink:href="#j" gradientUnits="userSpaceOnUse" gradientTransform="matrix(-.01507 1.3791 -1.3006 -.0142 282.66 -312.8)" y2="103.16" y1="103.16" x2="235.12" x1="227.88" id="e"/></defs></g><g transform="translate(40 60)"><path d="M85 0c-2.76 0-5 2.24-5 5s2.24 5 5 5 5-2.24 5-5-2.24-5-5-5" transform="translate(-80)" fill="url(#k)"/><path d="M.36 5C.36 7.56 2.44 9.64 5 9.64c2.56 0 4.64-2.08 4.64-4.64C9.64 2.44 7.56.36 5 .36 2.44.36.36 2.44.36 5" fill="#2a53cd"/><path d="M3.93 2.14c-.03-.53.55-.97 1.06-.83.5.12.79.73.56 1.18-.2.44-.79.61-1.2.36a.812.812 0 01-.42-.71zm1.7 5.46h.67v.53H3.41V7.6h.66V3.99h-.66v-.53h2.22V7.6z" fill="#fff"/><defs><linearGradient id="l"><stop offset="0" stop-color="#606eda"/><stop offset="1" stop-color="#021db2"/></linearGradient><linearGradient xlink:href="#l" gradientUnits="userSpaceOnUse" gradientTransform="translate(-.714 -69.286) scale(.71429)" y2="104" y1="104" x2="127" x1="113" id="k"/></defs></g><path d="M60.45 20.467v9.079h5.373l3.582-4.54-3.582-4.539z" fill="#698cfe" stroke="#4073f4" stroke-width=".908"/><path d="M60.45 40.467v9.08h5.372l3.581-4.54-3.581-4.54z" fill="#ef9d0d" stroke="#a36c01" stroke-width=".908"/><g transform="translate(60 60)"><path d="M5 10c-2.76 0-5-2.24-5-5s2.24-5 5-5 5 2.24 5 5-2.24 5-5 5z" fill="#e5a600"/><path d="M9.5 5c0 2.49-2.01 4.5-4.5 4.5S.5 7.49.5 5 2.51.5 5 .5 9.5 2.51 9.5 5z" fill="#ffbd00"/><path d="M165.03.53c1.97 0 3.56 1.02 3.56 2.28 0 1.26-1.59 2.28-3.56 2.28s-3.56-1.02-3.56-2.28c0-1.26 1.59-2.28 3.56-2.28z" transform="translate(-160)" fill="url(#m)"/><path d="M164.99 9.42c1.66 0 3-.71 3-1.59 0-.88-1.34-1.59-3-1.59s-3 .71-3 1.59c0 .88 1.34 1.59 3 1.59z" transform="translate(-160)" fill="url(#n)"/><defs><linearGradient id="o"><stop offset="0" stop-opacity="0" stop-color="#ffa801"/><stop offset="1" stop-color="#f0fb3d"/></linearGradient><linearGradient id="p"><stop offset="0" stop-opacity=".65" stop-color="#ffbd00"/><stop offset="1" stop-opacity=".91" stop-color="#fff"/></linearGradient><linearGradient xlink:href="#o" gradientUnits="userSpaceOnUse" gradientTransform="matrix(0 .43966 .78049 0 84.444 -93.924)" y2="103.16" y1="103.16" x2="235.12" x1="227.88" id="n"/><linearGradient xlink:href="#p" gradientUnits="userSpaceOnUse" gradientTransform="matrix(0 -.62931 .92683 0 69.47 148.53)" y2="103.16" y1="103.16" x2="235.12" x1="227.88" id="m"/></defs></g><g transform="translate(0 80)"><path d="M125 10c-2.76 0-5-2.24-5-5s2.24-5 5-5 5 2.24 5 5-2.24 5-5 5z" transform="translate(-120)" fill="url(#q)"/><path d="M9.5 5c0 2.49-2.01 4.5-4.5 4.5S.5 7.49.5 5 2.51.5 5 .5 9.5 2.51 9.5 5z" fill="#d00"/><path d="M125.03.53c1.97 0 3.56 1.02 3.56 2.28 0 1.26-1.59 2.28-3.56 2.28s-3.56-1.02-3.56-2.28c0-1.26 1.59-2.28 3.56-2.28z" transform="translate(-120)" fill="url(#r)"/><path d="M125.03 9.47c1.66 0 3-.71 3-1.59 0-.88-1.34-1.59-3-1.59s-3 .71-3 1.59c0 .88 1.34 1.59 3 1.59z" transform="translate(-120)" fill="url(#s)"/><defs><linearGradient id="t"><stop offset="0" stop-opacity="0" stop-color="red"/><stop offset="1" stop-opacity=".71" stop-color="#f0cb68"/></linearGradient><linearGradient id="u"><stop offset="0" stop-opacity=".65" stop-color="#e60000"/><stop offset="1" stop-opacity=".91" stop-color="#fff"/></linearGradient><linearGradient id="v"><stop offset="0" stop-color="#a10000"/><stop offset="1" stop-color="#c60000"/></linearGradient><linearGradient xlink:href="#t" gradientUnits="userSpaceOnUse" gradientTransform="matrix(0 .43966 .78049 0 44.488 -93.88)" y2="103.16" y1="103.16" x2="235.12" x1="227.88" id="s"/><linearGradient xlink:href="#u" gradientUnits="userSpaceOnUse" gradientTransform="matrix(0 -.62931 .92683 0 29.47 148.53)" y2="103.16" y1="103.16" x2="235.12" x1="227.88" id="r"/><linearGradient xlink:href="#v" gradientUnits="userSpaceOnUse" gradientTransform="matrix(0 1.3793 -1.3008 0 259.08 -314.35)" y2="103.16" y1="103.16" x2="235.12" x1="227.88" id="q"/></defs></g><path d="M20 80h10v10H20z" fill="none"/><path d="M27.5 82.5V80H20v7.5h2.5V90H30v-7.5zM21 81h5.5v5.5H21zm2.5 6.5h4v-4H29V89h-5.5z"/><path d="M23.5 87.5h4v-4H29V89h-5.5z" fill-opacity=".25"/><g fill="#acf2ae" stroke="#007200" stroke-width="2.577"><path d="M144.95 10A5.002 5.002 0 01140 4.95 5.002 5.002 0 01145.05 0c2.76.03 4.98 2.29 4.95 5.05a5.002 5.002 0 01-5.05 4.95z" transform="matrix(.29356 0 0 .2909 2.65 86.864)"/><path d="M149.5 5.05a4.494 4.494 0 01-4.55 4.45 4.494 4.494 0 01-4.45-4.55A4.494 4.494 0 01145.05.5c2.49.03 4.48 2.06 4.45 4.55z" transform="matrix(.29356 0 0 .2909 2.65 86.864)"/></g><path d="M48.313 82.5L45.21 86l-3.102-3.5h1.24v-1.92h3.723v1.92z" fill="#adf2ad" stroke="#007200"/><path d="M66.537 88.514a1.314 1.314 0 01-1.335 1.295 1.313 1.313 0 01-1.306-1.324 1.314 1.314 0 011.335-1.294c.731.009 1.315.6 1.307 1.323z" fill="#acf2ae" stroke="#007200" stroke-width=".753"/><path d="M62.108 83.5l3.102-2.982 3.102 2.982h-1.24v2h-3.723v-2z" fill="#adf2ad" stroke="#007200"/><path d="M83.25 21.75l3.5 3.25-3.5 3.25" fill="none" stroke="#367cf1" stroke-width="1.5"/><path d="M86 40l-5 5 5 5v-2h3v-6h-3zM84 60l5 5-5 5.022v-2.045L81 68v-6h3z" fill="#4688f1"/><path d="M84.5 88l3.5-6h-7M7 104.5L2 101v7M24 100l4 7h-8"/><path d="M43.25 102.75l3.5 3.25-3.5 3.25" fill="none" stroke="#939393" stroke-width="1.5"/><path d="M61 109l4-8 4 8z" stroke="#c19600" stroke-width="2" stroke-linejoin="round"/><path d="M61 109l4-8 4 8z" fill="#f4bd00" stroke="#f5bd00" stroke-width="1.5" stroke-linejoin="round"/><path d="M63.75 102.75h2.5v2.5l-.5 1.75h-1.5l-.5-1.75v-2.5m0 5.25h2.5v1.25h-2.5" fill="#ad8601"/><path d="M64 103h2v2.25l-.5 1.75h-1l-.5-1.75V103m0 5h2v1h-2" fill="#fff"/><text y="118.387" x="3.051" style="line-height:0%" font-weight="400" font-family="sans-serif" letter-spacing="0" word-spacing="0" fill="#ccc"><tspan style="line-height:1.25" y="118.387" x="3.051" font-size="8">a</tspan></text><text y="118.387" x="23.051" style="line-height:0%" font-weight="400" font-family="sans-serif" letter-spacing="0" word-spacing="0" fill="#ccc"><tspan style="line-height:1.25" y="118.387" x="23.051" font-size="8">b</tspan></text><text y="118.387" x="43.051" style="line-height:0%" font-weight="400" font-family="sans-serif" letter-spacing="0" word-spacing="0" fill="#ccc"><tspan style="line-height:1.25" y="118.387" x="43.051" font-size="8">c</tspan></text><text y="118.387" x="63.051" style="line-height:0%" font-weight="400" font-family="sans-serif" letter-spacing="0" word-spacing="0" fill="#ccc"><tspan style="line-height:1.25" y="118.387" x="63.051" font-size="8">d</tspan></text><text y="118.387" x="83.051" style="line-height:0%" font-weight="400" font-family="sans-serif" letter-spacing="0" word-spacing="0" fill="#ccc"><tspan style="line-height:1.25" y="118.387" x="83.051" font-size="8">e</tspan></text><text y="107.818" x="-7.026" style="line-height:0%" font-weight="400" font-family="sans-serif" letter-spacing="0" word-spacing="0" fill="#ccc"><tspan style="line-height:1.25" y="107.818" x="-7.026" font-size="8">1</tspan></text><text y="87.88" x="-6.819" style="line-height:0%" font-weight="400" font-family="sans-serif" letter-spacing="0" word-spacing="0" fill="#ccc"><tspan style="line-height:1.25" y="87.88" x="-6.819" font-size="8">2</tspan></text><text y="67.992" x="-6.756" style="line-height:0%" font-weight="400" font-family="sans-serif" letter-spacing="0" word-spacing="0" fill="#ccc"><tspan style="line-height:1.25" y="67.992" x="-6.756" font-size="8">3</tspan></text><text y="47.994" x="-6.917" style="line-height:0%" font-weight="400" font-family="sans-serif" letter-spacing="0" word-spacing="0" fill="#ccc"><tspan style="line-height:1.25" y="47.994" x="-6.917" font-size="8">4</tspan></text><text y="28.056" x="-7.108" style="line-height:0%" font-weight="400" font-family="sans-serif" letter-spacing="0" word-spacing="0" fill="#ccc"><tspan style="line-height:1.25" y="28.056" x="-7.108" font-size="8">5</tspan></text><circle r="2.5" cy="3" cx="3" transform="matrix(1.13208 0 0 1.13208 81.604 102.604)" fill="#00bcd4" stroke="#000" stroke-width=".3"/><path d="M5 0a5 5 0 100 10A5 5 0 005 0zm.048.721c1.083 0 2.179.4 3.005 1.226a4.234 4.234 0 010 5.986L5.048 4.952l-2.98-3.005A4.18 4.18 0 015.047.721z"/><text y="8" x="-6.68" style="line-height:0%" font-weight="400" font-family="sans-serif" letter-spacing="0" word-spacing="0" fill="#ccc"><tspan style="line-height:1.25" y="8" x="-6.68" font-size="8">6</tspan></text><path d="M17.601-2.913h16.232v16.232H17.601z" fill="none"/><path d="M21.11 5.556L20 6.667 23.334 10 30 3.334l-1.11-1.111-5.556 5.555z" fill-rule="evenodd"/><path d="M44.954 8.42a3.467 3.467 0 01-3.462-3.46c0-.678.2-1.309.531-1.84l4.77 4.77c-.531.338-1.162.53-1.84.53m3.462-3.46c0 .676-.2 1.307-.53 1.838l-4.77-4.77a3.405 3.405 0 011.839-.53 3.467 3.467 0 013.461 3.461M45 .005a5 5 0 100 10 5 5 0 000-10"/><path d="M68.875 2.219L63.344 7.78l-.407-.406L61.844 8.5l1.5 1.5L70 3.344l-1.125-1.125z" fill-rule="evenodd"/><text y="118.482" x="103.739" style="line-height:0%" font-weight="400" font-family="sans-serif" letter-spacing="0" word-spacing="0" fill="#ccc"><tspan style="line-height:1.25" y="118.482" x="103.739" font-size="8">f</tspan></text><g mask="url(#w)" transform="translate(100 100)"><path d="M1 9l4-8 4 8z" stroke="#c19600" stroke-width="2" stroke-linejoin="round"/><path d="M1 9l4-8 4 8z" fill="#f4bd00" stroke="#f5bd00" stroke-width="1.5" stroke-linejoin="round"/><path d="M3.75 2.75h2.5v2.5L5.75 7h-1.5l-.5-1.75v-2.5m0 5.25h2.5v1.25h-2.5" fill="#ad8601"/><mask id="w"><path fill="#fff" d="M0 0h10v10H0z"/><path d="M64 3h2v2.25L65.5 7h-1L64 5.25V3m0 5h2v1h-2" transform="translate(-60)"/></mask></g><g mask="url(#x)" transform="translate(100 80)"><path d="M85 0c-2.76 0-5 2.24-5 5s2.24 5 5 5 5-2.24 5-5-2.24-5-5-5" transform="translate(-80)" fill="url(#y)"/><path d="M.36 5C.36 7.56 2.44 9.64 5 9.64c2.56 0 4.64-2.08 4.64-4.64C9.64 2.44 7.56.36 5 .36 2.44.36.36 2.44.36 5" fill="#2a53cd"/><mask id="x"><path fill="#fff" d="M0 0h10v10H0z"/><path d="M83.93 2.14c-.03-.53.55-.97 1.06-.83.5.12.79.73.56 1.18-.2.44-.79.61-1.2.36a.812.812 0 01-.42-.71zm1.7 5.46h.67v.53h-2.89V7.6h.66V3.99h-.66v-.53h2.22V7.6z" transform="translate(-80)"/></mask></g><g mask="url(#z)" transform="translate(100 60)"><path d="M25 0c-2.76 0-5 2.24-5 5s2.24 5 5 5 5-2.24 5-5-2.24-5-5-5" transform="translate(-20)" fill="url(#A)"/><path d="M.36 5C.36 7.56 2.44 9.64 5 9.64c2.56 0 4.64-2.08 4.64-4.64C9.64 2.44 7.56.36 5 .36 2.44.36.36 2.44.36 5" fill="#eb3941"/><mask id="z"><path fill="#fff" d="M0 0h10v10H0z"/><path d="M23 3l4 4M27 3l-4 4" transform="translate(-20)" stroke="#000"/></mask></g><g><path d="M105.1 40.267a4.835 4.835 0 00-4.833 4.833 4.835 4.835 0 004.833 4.833 4.835 4.835 0 004.833-4.833 4.835 4.835 0 00-4.833-4.833zm0 1.45c.802 0 1.45.647 1.45 1.45 0 .802-.648 1.45-1.45 1.45-.802 0-1.45-.648-1.45-1.45 0-.803.648-1.45 1.45-1.45zm0 6.863a3.48 3.48 0 01-2.9-1.556c.014-.962 1.933-1.489 2.9-1.489.962 0 2.885.527 2.9 1.489a3.48 3.48 0 01-2.9 1.556z"/><path d="M99.3 39.3h11.6v11.6H99.3z" fill="none"/></g><path d="M105 22.528l-4 4.43.94 1.042 3.06-3.382L108.06 28l.94-1.041z"/><path d="M76.448 14.99h17.528v19.416H76.448z" fill="none"/><path d="M88.06 3.06L85 6.113 81.94 3.06 81 4l4 4 4-4zM102 2h2v6h-2z"/><a><path d="M106 2h2v6h-2z"/></a><text y="117.219" x="122.66" style="line-height:0%" font-weight="400" font-family="sans-serif" letter-spacing="0" word-spacing="0" fill="#ccc"><tspan style="line-height:1.25" y="117.219" x="122.66" font-size="8">g</tspan></text><path d="M128 5l-6 3V2zM128 26.5l-1.5 1.5-1.5-1.5-1.5 1.5-1.5-1.5 1.5-1.5-1.5-1.5 1.5-1.5 1.5 1.5 1.5-1.5 1.5 1.5-1.5 1.5z"/><g fill="none"><path d="M120.894 81.24c-.136.254-.136.586-.136 1.25V89.13c0 .132.168.198.266.105l1.609-1.526h4.875c.7 0 1.05 0 1.317-.13a1.22 1.22 0 00.546-.518c.137-.253.137-.585.137-1.25v-3.32c0-.665 0-.997-.137-1.25a1.22 1.22 0 00-.546-.519c-.267-.129-.617-.129-1.317-.129h-4.75c-.7 0-1.05 0-1.318.13a1.22 1.22 0 00-.546.518z" clip-rule="evenodd" fill="#1a73e8" fill-rule="evenodd"/><path fill="#fff" fill-rule="evenodd" d="M122.382 82.507h5.5v.8h-5.5zM122.382 84.665h3.4v.8h-3.4z"/><path d="M120.759 101.24c-.136.254-.136.586-.136 1.25V109.13c0 .132.168.198.266.105l1.609-1.526h4.875c.7 0 1.05 0 1.317-.13a1.22 1.22 0 00.546-.518c.137-.253.137-.585.137-1.25v-3.32c0-.665 0-.997-.137-1.25a1.22 1.22 0 00-.546-.519c-.267-.129-.617-.129-1.317-.129h-4.75c-.7 0-1.05 0-1.318.13a1.22 1.22 0 00-.546.518z" clip-rule="evenodd" fill="#f9ab00" fill-rule="evenodd"/><path fill="#fff" fill-rule="evenodd" d="M122.247 102.508h5.5v.8h-5.5zM122.247 104.665h3.4v.8h-3.4z"/><text transform="matrix(.60879 0 0 .60879 118.75 98.91)" y="-178.896" x="-211.003" style="line-height:1.25" font-weight="400" font-size="8.761" font-family="sans-serif" fill="#000" stroke-width="1.643"><tspan y="-178.896" x="-211.003">Sprites are deprecated, do not modify this file.</tspan><tspan y="-167.945" x="-211.003">See readme in front_end/Images for the new workflow.</tspan></text></g></svg>