<svg id="图层_1" data-name="图层 1" xmlns="http://www.w3.org/2000/svg" xmlns:xlink="http://www.w3.org/1999/xlink" viewBox="0 0 595.1 622.13"><defs><style>.cls-1{fill:none;}.cls-2{fill:#0b6cf3;}.cls-3{clip-path:url(#clip-path);}.cls-4{fill:#27c8ff;}.cls-5{fill:#27c7ff;}.cls-6{fill:#26c5ff;}.cls-7{fill:#26c4ff;}.cls-8{fill:#26c3ff;}.cls-9{fill:#25c2ff;}.cls-10{fill:#25c0ff;}.cls-11{fill:#24bfff;}.cls-12{fill:#24beff;}.cls-13{fill:#24bdff;}.cls-14{fill:#23bcff;}.cls-15{fill:#23baff;}.cls-16{fill:#23b9ff;}.cls-17{fill:#22b8ff;}.cls-18{fill:#22b7ff;}.cls-19{fill:#22b5ff;}.cls-20{fill:#21b4ff;}.cls-21{fill:#21b3ff;}.cls-22{fill:#20b2ff;}.cls-23{fill:#20b1ff;}.cls-24{fill:#20afff;}.cls-25{fill:#1faeff;}.cls-26{fill:#1fadff;}.cls-27{fill:#1facff;}.cls-28{fill:#1eabff;}.cls-29{fill:#1eaaff;}.cls-30{fill:#1ea9ff;}.cls-31{fill:#1da7ff;}.cls-32{fill:#1da6ff;}.cls-33{fill:#1da5ff;}.cls-34{fill:#1ca4ff;}.cls-35{fill:#1ca3ff;}.cls-36{fill:#1ca2ff;}.cls-37{fill:#1ba1ff;}.cls-38{fill:#1ba0ff;}.cls-39{fill:#1b9eff;}.cls-40{fill:#1a9dff;}.cls-41{fill:#1a9cff;}.cls-42{fill:#1a9bff;}.cls-43{fill:#199aff;}.cls-44{fill:#1999ff;}.cls-45{fill:#1998ff;}.cls-46{fill:#1997ff;}.cls-47{fill:#1896ff;}.cls-48{fill:#1895ff;}.cls-49{fill:#1894ff;}.cls-50{fill:#1793ff;}.cls-51{fill:#1792ff;}.cls-52{fill:#1791ff;}.cls-53{fill:#1690ff;}.cls-54{fill:#168fff;}.cls-55{fill:#168eff;}.cls-56{fill:#168dff;}.cls-57{fill:#158cff;}.cls-58{fill:#158bff;}.cls-59{fill:#158aff;}.cls-60{fill:#1589ff;}.cls-61{fill:#1488ff;}.cls-62{fill:#1487ff;}.cls-63{fill:#1386ff;}.cls-64{fill:#1385ff;}.cls-65{fill:#1384ff;}.cls-66{fill:#1383ff;}.cls-67{fill:#1282ff;}.cls-68{fill:#1281ff;}.cls-69{fill:#1280ff;}.cls-70{fill:#127fff;}.cls-71{fill:#117fff;}.cls-72{fill:#117eff;}.cls-73{fill:#117dff;}.cls-74{fill:#117cff;}.cls-75{fill:#107bff;}.cls-76{fill:#107aff;}.cls-77{clip-path:url(#clip-path-2);}.cls-78{clip-path:url(#clip-path-3);}.cls-79{clip-path:url(#clip-path-4);}</style><clipPath id="clip-path" transform="translate(-215.25 -202)"><path class="cls-1" d="M789.68,529.34,808.24,421a34.41,34.41,0,0,0-11.86-32.33L689.19,299.15A34.44,34.44,0,0,0,645.05,352L737,428.77l-.07.36C767.3,462.19,782.8,481.13,789.68,529.34Z"/></clipPath><clipPath id="clip-path-2" transform="translate(-215.25 -202)"><path class="cls-1" d="M385.87,262.47,282.73,300.58A34.44,34.44,0,0,0,260.66,327l-23.9,137.57a34.44,34.44,0,0,0,67.86,11.79l20.5-118,.34-.13C338.9,315.43,347.55,292.54,385.87,262.47Z"/></clipPath><clipPath id="clip-path-3" transform="translate(-215.25 -202)"><circle class="cls-1" cx="513.89" cy="516.42" r="70.88"/></clipPath><clipPath id="clip-path-4" transform="translate(-215.25 -202)"><path class="cls-1" d="M358.09,743.74,442.66,814a34.46,34.46,0,0,0,33.94,5.89l131.09-48.08A34.44,34.44,0,1,0,584,707.15L471.54,748.38l-.28-.23C427.44,757.93,403.29,761.88,358.09,743.74Z"/></clipPath></defs><title>LOGO-交付-纯图案ai</title><path class="cls-2" d="M736.91,429.13,714.59,557.57,692.41,685.18A34.44,34.44,0,0,0,760.28,697l2.85-16.44,31.24-179.72C775.88,467.73,752.32,443.15,736.91,429.13Z" transform="translate(-215.25 -202)"/><g class="cls-3"><rect class="cls-4" x="413.25" y="84.96" width="4.19" height="242.38"/><rect class="cls-4" x="417.43" y="84.96" width="2.26" height="242.38"/><rect class="cls-5" x="419.69" y="84.96" width="2.26" height="242.38"/><rect class="cls-6" x="421.95" y="84.96" width="2.26" height="242.38"/><rect class="cls-7" x="424.21" y="84.96" width="2.26" height="242.38"/><rect class="cls-8" x="426.46" y="84.96" width="2.26" height="242.38"/><rect class="cls-9" x="428.72" y="84.96" width="2.26" height="242.38"/><rect class="cls-10" x="430.98" y="84.96" width="2.26" height="242.38"/><rect class="cls-11" x="433.23" y="84.96" width="2.26" height="242.38"/><rect class="cls-12" x="435.49" y="84.96" width="2.26" height="242.38"/><rect class="cls-13" x="437.75" y="84.96" width="2.26" height="242.38"/><rect class="cls-14" x="440.01" y="84.96" width="2.26" height="242.38"/><rect class="cls-15" x="442.26" y="84.96" width="2.26" height="242.38"/><rect class="cls-16" x="444.52" y="84.96" width="2.26" height="242.38"/><rect class="cls-17" x="446.78" y="84.96" width="2.26" height="242.38"/><rect class="cls-18" x="449.04" y="84.96" width="2.26" height="242.38"/><rect class="cls-19" x="451.29" y="84.96" width="2.26" height="242.38"/><rect class="cls-20" x="453.55" y="84.96" width="2.26" height="242.38"/><rect class="cls-21" x="455.81" y="84.96" width="2.26" height="242.38"/><rect class="cls-22" x="458.06" y="84.96" width="2.26" height="242.38"/><rect class="cls-23" x="460.32" y="84.96" width="2.26" height="242.38"/><rect class="cls-24" x="462.58" y="84.96" width="2.26" height="242.38"/><rect class="cls-25" x="464.84" y="84.96" width="2.26" height="242.38"/><rect class="cls-26" x="467.09" y="84.96" width="2.26" height="242.38"/><rect class="cls-27" x="469.35" y="84.96" width="2.26" height="242.38"/><rect class="cls-28" x="471.61" y="84.96" width="2.26" height="242.38"/><rect class="cls-29" x="473.87" y="84.96" width="2.26" height="242.38"/><rect class="cls-30" x="476.12" y="84.96" width="2.26" height="242.38"/><rect class="cls-31" x="478.38" y="84.96" width="2.26" height="242.38"/><rect class="cls-32" x="480.64" y="84.96" width="2.26" height="242.38"/><rect class="cls-33" x="482.89" y="84.96" width="2.26" height="242.38"/><rect class="cls-34" x="485.15" y="84.96" width="2.26" height="242.38"/><rect class="cls-35" x="487.41" y="84.96" width="2.26" height="242.38"/><rect class="cls-36" x="489.67" y="84.96" width="2.26" height="242.38"/><rect class="cls-37" x="491.92" y="84.96" width="2.26" height="242.38"/><rect class="cls-38" x="494.18" y="84.96" width="2.26" height="242.38"/><rect class="cls-39" x="496.44" y="84.96" width="2.26" height="242.38"/><rect class="cls-40" x="498.7" y="84.96" width="2.26" height="242.38"/><rect class="cls-41" x="500.95" y="84.96" width="2.26" height="242.38"/><rect class="cls-42" x="503.21" y="84.96" width="2.26" height="242.38"/><rect class="cls-43" x="505.47" y="84.96" width="2.26" height="242.38"/><rect class="cls-44" x="507.72" y="84.96" width="2.26" height="242.38"/><rect class="cls-45" x="509.98" y="84.96" width="2.26" height="242.38"/><rect class="cls-46" x="512.24" y="84.96" width="2.26" height="242.38"/><rect class="cls-47" x="514.5" y="84.96" width="2.26" height="242.38"/><rect class="cls-48" x="516.75" y="84.96" width="2.26" height="242.38"/><rect class="cls-49" x="519.01" y="84.96" width="2.26" height="242.38"/><rect class="cls-50" x="521.27" y="84.96" width="2.26" height="242.38"/><rect class="cls-51" x="523.53" y="84.96" width="2.26" height="242.38"/><rect class="cls-52" x="525.78" y="84.96" width="2.26" height="242.38"/><rect class="cls-53" x="528.04" y="84.96" width="2.26" height="242.38"/><rect class="cls-54" x="530.3" y="84.96" width="2.26" height="242.38"/><rect class="cls-55" x="532.55" y="84.96" width="2.26" height="242.38"/><rect class="cls-56" x="534.81" y="84.96" width="2.26" height="242.38"/><rect class="cls-57" x="537.07" y="84.96" width="2.26" height="242.38"/><rect class="cls-58" x="539.33" y="84.96" width="2.26" height="242.38"/><rect class="cls-59" x="541.58" y="84.96" width="2.26" height="242.38"/><rect class="cls-60" x="543.84" y="84.96" width="2.26" height="242.38"/><rect class="cls-61" x="546.1" y="84.96" width="2.26" height="242.38"/><rect class="cls-62" x="548.35" y="84.96" width="2.26" height="242.38"/><rect class="cls-62" x="550.61" y="84.96" width="2.26" height="242.38"/><rect class="cls-63" x="552.87" y="84.96" width="2.26" height="242.38"/><rect class="cls-64" x="555.13" y="84.96" width="2.26" height="242.38"/><rect class="cls-65" x="557.38" y="84.96" width="2.26" height="242.38"/><rect class="cls-66" x="559.64" y="84.96" width="2.26" height="242.38"/><rect class="cls-67" x="561.9" y="84.96" width="2.26" height="242.38"/><rect class="cls-67" x="564.16" y="84.96" width="2.26" height="242.38"/><rect class="cls-68" x="566.41" y="84.96" width="2.26" height="242.38"/><rect class="cls-69" x="568.67" y="84.96" width="2.26" height="242.38"/><rect class="cls-70" x="570.93" y="84.96" width="2.26" height="242.38"/><rect class="cls-71" x="573.18" y="84.96" width="2.26" height="242.38"/><rect class="cls-72" x="575.44" y="84.96" width="2.26" height="242.38"/><rect class="cls-73" x="577.7" y="84.96" width="2.26" height="242.38"/><rect class="cls-73" x="579.96" y="84.96" width="2.26" height="242.38"/><rect class="cls-74" x="582.21" y="84.96" width="2.26" height="242.38"/><rect class="cls-75" x="584.47" y="84.96" width="2.26" height="242.38"/><rect class="cls-75" x="586.73" y="84.96" width="2.26" height="242.38"/><rect class="cls-76" x="588.99" y="84.96" width="2.26" height="242.38"/><rect class="cls-76" x="591.24" y="84.96" width="2.26" height="242.38"/><rect class="cls-76" x="593.5" y="84.96" width="1.6" height="242.38"/></g><path class="cls-2" d="M325.46,358.27l122.4-44.89,121.6-44.6a34.44,34.44,0,0,0,20.48-44.19,35.09,35.09,0,0,0-2.53-5.4,34.45,34.45,0,0,0-41.67-15.08l-15.66,5.75L358.82,272.67C339.41,305.22,329.9,337.92,325.46,358.27Z" transform="translate(-215.25 -202)"/><g class="cls-77"><polygon class="cls-4" points="55.39 305.67 170.62 239.15 170.62 241.75 59.91 305.67 55.39 305.67"/><polygon class="cls-5" points="50.88 305.67 170.62 236.54 170.62 239.15 55.39 305.67 50.88 305.67"/><polygon class="cls-6" points="46.36 305.67 170.62 233.93 170.62 236.54 50.88 305.67 46.36 305.67"/><polygon class="cls-7" points="41.85 305.67 170.62 231.33 170.62 233.93 46.36 305.67 41.85 305.67"/><polygon class="cls-8" points="37.33 305.67 170.62 228.72 170.62 231.33 41.85 305.67 37.33 305.67"/><polygon class="cls-9" points="32.82 305.67 170.62 226.11 170.62 228.72 37.33 305.67 32.82 305.67"/><polygon class="cls-10" points="30 305.67 29.57 304.94 170.62 223.51 170.62 226.11 32.82 305.67 30 305.67"/><polygon class="cls-11" points="29.57 304.94 28.44 302.98 170.62 220.9 170.62 223.51 29.57 304.94"/><polygon class="cls-12" points="28.44 302.98 27.32 301.03 170.62 218.29 170.62 220.9 28.44 302.98"/><polygon class="cls-13" points="27.32 301.03 26.19 299.07 170.62 215.69 170.62 218.29 27.32 301.03"/><polygon class="cls-14" points="26.19 299.07 25.06 297.12 170.62 213.08 170.62 215.69 26.19 299.07"/><polygon class="cls-15" points="25.06 297.12 23.93 295.16 170.62 210.47 170.62 213.08 25.06 297.12"/><polygon class="cls-16" points="23.93 295.16 22.8 293.21 170.62 207.87 170.62 210.47 23.93 295.16"/><polygon class="cls-17" points="22.8 293.21 21.67 291.25 170.62 205.26 170.62 207.87 22.8 293.21"/><polygon class="cls-18" points="21.67 291.25 20.54 289.3 170.62 202.66 170.62 205.26 21.67 291.25"/><polygon class="cls-19" points="20.54 289.3 19.41 287.35 170.62 200.05 170.62 202.66 20.54 289.3"/><polygon class="cls-20" points="19.41 287.35 18.29 285.39 170.62 197.44 170.62 200.05 19.41 287.35"/><polygon class="cls-21" points="18.29 285.39 18.25 285.32 18.25 282.81 170.62 194.84 170.62 197.44 18.29 285.39"/><polygon class="cls-22" points="18.25 280.2 170.62 192.23 170.62 194.84 18.25 282.81 18.25 280.2"/><polygon class="cls-23" points="18.25 277.59 170.62 189.62 170.62 192.23 18.25 280.2 18.25 277.59"/><polygon class="cls-24" points="18.25 274.99 170.62 187.02 170.62 189.62 18.25 277.59 18.25 274.99"/><polygon class="cls-25" points="18.25 272.38 170.62 184.41 170.62 187.02 18.25 274.99 18.25 272.38"/><polygon class="cls-26" points="18.25 269.77 170.62 181.8 170.62 184.41 18.25 272.38 18.25 269.77"/><polygon class="cls-27" points="18.25 267.17 170.62 179.2 170.62 181.8 18.25 269.77 18.25 267.17"/><polygon class="cls-28" points="18.25 264.56 170.62 176.59 170.62 179.2 18.25 267.17 18.25 264.56"/><polygon class="cls-29" points="18.25 261.95 170.62 173.99 170.62 176.59 18.25 264.56 18.25 261.95"/><polygon class="cls-30" points="18.25 259.35 170.62 171.38 170.62 173.99 18.25 261.95 18.25 259.35"/><polygon class="cls-31" points="18.25 256.74 170.62 168.77 170.62 171.38 18.25 259.35 18.25 256.74"/><polygon class="cls-32" points="18.25 254.13 170.62 166.16 170.62 168.77 18.25 256.74 18.25 254.13"/><polygon class="cls-33" points="18.25 251.53 170.62 163.56 170.62 166.16 18.25 254.13 18.25 251.53"/><polygon class="cls-34" points="18.25 248.92 170.62 160.95 170.62 163.56 18.25 251.53 18.25 248.92"/><polygon class="cls-35" points="18.25 246.31 170.62 158.35 170.62 160.95 18.25 248.92 18.25 246.31"/><polygon class="cls-36" points="18.25 243.71 170.62 155.74 170.62 158.35 18.25 246.31 18.25 243.71"/><polygon class="cls-37" points="18.25 241.1 170.62 153.13 170.62 155.74 18.25 243.71 18.25 241.1"/><polygon class="cls-38" points="18.25 238.5 170.62 150.53 170.62 153.13 18.25 241.1 18.25 238.5"/><polygon class="cls-39" points="18.25 235.89 170.62 147.92 170.62 150.53 18.25 238.5 18.25 235.89"/><polygon class="cls-40" points="18.25 233.28 170.62 145.31 170.62 147.92 18.25 235.89 18.25 233.28"/><polygon class="cls-41" points="18.25 230.68 170.62 142.71 170.62 145.31 18.25 233.28 18.25 230.68"/><polygon class="cls-42" points="18.25 228.07 170.62 140.1 170.62 142.71 18.25 230.68 18.25 228.07"/><polygon class="cls-43" points="18.25 225.46 170.62 137.49 170.62 140.1 18.25 228.07 18.25 225.46"/><polygon class="cls-44" points="18.25 222.86 170.62 134.89 170.62 137.49 18.25 225.46 18.25 222.86"/><polygon class="cls-45" points="18.25 220.25 170.62 132.28 170.62 134.89 18.25 222.86 18.25 220.25"/><polygon class="cls-46" points="18.25 217.64 170.62 129.68 170.62 132.28 18.25 220.25 18.25 217.64"/><polygon class="cls-47" points="18.25 215.04 170.62 127.07 170.62 129.68 18.25 217.64 18.25 215.04"/><polygon class="cls-48" points="18.25 212.43 170.62 124.46 170.62 127.07 18.25 215.04 18.25 212.43"/><polygon class="cls-49" points="18.25 209.82 170.62 121.86 170.62 124.46 18.25 212.43 18.25 209.82"/><polygon class="cls-50" points="18.25 207.22 170.62 119.25 170.62 121.86 18.25 209.82 18.25 207.22"/><polygon class="cls-51" points="18.25 204.61 170.62 116.64 170.62 119.25 18.25 207.22 18.25 204.61"/><polygon class="cls-52" points="18.25 202 170.62 114.04 170.62 116.64 18.25 204.61 18.25 202"/><polygon class="cls-53" points="18.25 199.4 170.62 111.43 170.62 114.04 18.25 202 18.25 199.4"/><polygon class="cls-54" points="18.25 196.79 170.62 108.82 170.62 111.43 18.25 199.4 18.25 196.79"/><polygon class="cls-55" points="18.25 194.19 170.62 106.22 170.62 108.82 18.25 196.79 18.25 194.19"/><polygon class="cls-56" points="18.25 191.58 170.62 103.61 170.62 106.22 18.25 194.19 18.25 191.58"/><polygon class="cls-57" points="18.25 188.97 170.62 101 170.62 103.61 18.25 191.58 18.25 188.97"/><polygon class="cls-58" points="18.25 186.37 170.62 98.4 170.62 101 18.25 188.97 18.25 186.37"/><polygon class="cls-59" points="18.25 183.76 170.62 95.79 170.62 98.4 18.25 186.37 18.25 183.76"/><polygon class="cls-60" points="18.25 181.15 170.62 93.18 170.62 95.79 18.25 183.76 18.25 181.15"/><polygon class="cls-61" points="18.25 178.55 170.62 90.58 170.62 93.18 18.25 181.15 18.25 178.55"/><polygon class="cls-62" points="18.25 175.94 170.62 87.97 170.62 90.58 18.25 178.55 18.25 175.94"/><polygon class="cls-62" points="18.25 173.33 170.62 85.36 170.62 87.97 18.25 175.94 18.25 173.33"/><polygon class="cls-63" points="18.25 170.73 170.62 82.76 170.62 85.36 18.25 173.33 18.25 170.73"/><polygon class="cls-64" points="18.25 168.12 170.62 80.15 170.62 82.76 18.25 170.73 18.25 168.12"/><polygon class="cls-65" points="18.25 165.51 170.62 77.55 170.62 80.15 18.25 168.12 18.25 165.51"/><polygon class="cls-66" points="18.25 162.91 170.62 74.94 170.62 77.55 18.25 165.51 18.25 162.91"/><polygon class="cls-67" points="18.25 160.3 170.62 72.33 170.62 74.94 18.25 162.91 18.25 160.3"/><polygon class="cls-67" points="18.25 157.69 170.62 69.73 170.62 72.33 18.25 160.3 18.25 157.69"/><polygon class="cls-68" points="18.25 155.09 170.62 67.12 170.62 69.73 18.25 157.69 18.25 155.09"/><polygon class="cls-69" points="18.25 152.48 170.62 64.51 170.62 67.12 18.25 155.09 18.25 152.48"/><polygon class="cls-70" points="18.25 149.88 170.62 61.91 170.62 64.51 18.25 152.48 18.25 149.88"/><polygon class="cls-71" points="18.25 147.27 168.6 60.47 170.62 60.47 170.62 61.91 18.25 149.88 18.25 147.27"/><polygon class="cls-72" points="18.25 144.66 164.08 60.47 168.6 60.47 18.25 147.27 18.25 144.66"/><polygon class="cls-73" points="18.25 142.06 159.57 60.47 164.08 60.47 18.25 144.66 18.25 142.06"/><polygon class="cls-73" points="18.25 139.45 155.05 60.47 159.57 60.47 18.25 142.06 18.25 139.45"/><polygon class="cls-74" points="18.25 136.84 150.54 60.47 155.05 60.47 18.25 139.45 18.25 136.84"/><polygon class="cls-75" points="18.25 134.24 146.03 60.47 150.54 60.47 18.25 136.84 18.25 134.24"/><polygon class="cls-75" points="18.25 131.63 141.51 60.47 146.03 60.47 18.25 134.24 18.25 131.63"/><polygon class="cls-76" points="18.25 129.02 137 60.47 141.51 60.47 18.25 131.63 18.25 129.02"/><polygon class="cls-76" points="18.25 126.42 132.48 60.47 137 60.47 18.25 129.02 18.25 126.42"/></g><g class="cls-78"><rect class="cls-4" x="218.61" y="234.39" width="9.13" height="160.06"/><rect class="cls-4" x="227.73" y="234.39" width="1.82" height="160.06"/><rect class="cls-5" x="229.55" y="234.39" width="1.82" height="160.06"/><rect class="cls-6" x="231.37" y="234.39" width="1.82" height="160.06"/><rect class="cls-7" x="233.19" y="234.39" width="1.82" height="160.06"/><rect class="cls-8" x="235" y="234.39" width="1.82" height="160.06"/><rect class="cls-9" x="236.82" y="234.39" width="1.82" height="160.06"/><rect class="cls-10" x="238.64" y="234.39" width="1.82" height="160.06"/><rect class="cls-11" x="240.46" y="234.39" width="1.82" height="160.06"/><rect class="cls-12" x="242.28" y="234.39" width="1.82" height="160.06"/><rect class="cls-13" x="244.1" y="234.39" width="1.82" height="160.06"/><rect class="cls-14" x="245.91" y="234.39" width="1.82" height="160.06"/><rect class="cls-15" x="247.73" y="234.39" width="1.82" height="160.06"/><rect class="cls-16" x="249.55" y="234.39" width="1.82" height="160.06"/><rect class="cls-17" x="251.37" y="234.39" width="1.82" height="160.06"/><rect class="cls-18" x="253.19" y="234.39" width="1.82" height="160.06"/><rect class="cls-19" x="255" y="234.39" width="1.82" height="160.06"/><rect class="cls-20" x="256.82" y="234.39" width="1.82" height="160.06"/><rect class="cls-21" x="258.64" y="234.39" width="1.82" height="160.06"/><rect class="cls-22" x="260.46" y="234.39" width="1.82" height="160.06"/><rect class="cls-23" x="262.28" y="234.39" width="1.82" height="160.06"/><rect class="cls-24" x="264.09" y="234.39" width="1.82" height="160.06"/><rect class="cls-25" x="265.91" y="234.39" width="1.82" height="160.06"/><rect class="cls-26" x="267.73" y="234.39" width="1.82" height="160.06"/><rect class="cls-27" x="269.55" y="234.39" width="1.82" height="160.06"/><rect class="cls-28" x="271.37" y="234.39" width="1.82" height="160.06"/><rect class="cls-29" x="273.18" y="234.39" width="1.82" height="160.06"/><rect class="cls-30" x="275" y="234.39" width="1.82" height="160.06"/><rect class="cls-31" x="276.82" y="234.39" width="1.82" height="160.06"/><rect class="cls-32" x="278.64" y="234.39" width="1.82" height="160.06"/><rect class="cls-33" x="280.46" y="234.39" width="1.82" height="160.06"/><rect class="cls-34" x="282.27" y="234.39" width="1.82" height="160.06"/><rect class="cls-35" x="284.09" y="234.39" width="1.82" height="160.06"/><rect class="cls-36" x="285.91" y="234.39" width="1.82" height="160.06"/><rect class="cls-37" x="287.73" y="234.39" width="1.82" height="160.06"/><rect class="cls-38" x="289.55" y="234.39" width="1.82" height="160.06"/><rect class="cls-39" x="291.36" y="234.39" width="1.82" height="160.06"/><rect class="cls-40" x="293.18" y="234.39" width="1.82" height="160.06"/><rect class="cls-41" x="295" y="234.39" width="1.82" height="160.06"/><rect class="cls-42" x="296.82" y="234.39" width="1.82" height="160.06"/><rect class="cls-43" x="298.64" y="234.39" width="1.82" height="160.06"/><rect class="cls-44" x="300.45" y="234.39" width="1.82" height="160.06"/><rect class="cls-45" x="302.27" y="234.39" width="1.82" height="160.06"/><rect class="cls-46" x="304.09" y="234.39" width="1.82" height="160.06"/><rect class="cls-47" x="305.91" y="234.39" width="1.82" height="160.06"/><rect class="cls-48" x="307.73" y="234.39" width="1.82" height="160.06"/><rect class="cls-49" x="309.54" y="234.39" width="1.82" height="160.06"/><rect class="cls-50" x="311.36" y="234.39" width="1.82" height="160.06"/><rect class="cls-51" x="313.18" y="234.39" width="1.82" height="160.06"/><rect class="cls-52" x="315" y="234.39" width="1.82" height="160.06"/><rect class="cls-53" x="316.82" y="234.39" width="1.82" height="160.06"/><rect class="cls-54" x="318.63" y="234.39" width="1.82" height="160.06"/><rect class="cls-55" x="320.45" y="234.39" width="1.82" height="160.06"/><rect class="cls-56" x="322.27" y="234.39" width="1.82" height="160.06"/><rect class="cls-57" x="324.09" y="234.39" width="1.82" height="160.06"/><rect class="cls-58" x="325.91" y="234.39" width="1.82" height="160.06"/><rect class="cls-59" x="327.72" y="234.39" width="1.82" height="160.06"/><rect class="cls-60" x="329.54" y="234.39" width="1.82" height="160.06"/><rect class="cls-61" x="331.36" y="234.39" width="1.82" height="160.06"/><rect class="cls-62" x="333.18" y="234.39" width="1.82" height="160.06"/><rect class="cls-62" x="335" y="234.39" width="1.82" height="160.06"/><rect class="cls-63" x="336.82" y="234.39" width="1.82" height="160.06"/><rect class="cls-64" x="338.63" y="234.39" width="1.82" height="160.06"/><rect class="cls-65" x="340.45" y="234.39" width="1.82" height="160.06"/><rect class="cls-66" x="342.27" y="234.39" width="1.82" height="160.06"/><rect class="cls-67" x="344.09" y="234.39" width="1.82" height="160.06"/><rect class="cls-67" x="345.91" y="234.39" width="1.82" height="160.06"/><rect class="cls-68" x="347.72" y="234.39" width="1.82" height="160.06"/><rect class="cls-69" x="349.54" y="234.39" width="1.82" height="160.06"/><rect class="cls-70" x="351.36" y="234.39" width="1.82" height="160.06"/><rect class="cls-71" x="353.18" y="234.39" width="1.82" height="160.06"/><rect class="cls-72" x="355" y="234.39" width="1.82" height="160.06"/><rect class="cls-73" x="356.81" y="234.39" width="1.82" height="160.06"/><rect class="cls-73" x="358.63" y="234.39" width="1.82" height="160.06"/><rect class="cls-74" x="360.45" y="234.39" width="1.82" height="160.06"/><rect class="cls-75" x="362.27" y="234.39" width="1.82" height="160.06"/><rect class="cls-75" x="364.09" y="234.39" width="1.82" height="160.06"/><rect class="cls-76" x="365.9" y="234.39" width="1.82" height="160.06"/><rect class="cls-76" x="367.72" y="234.39" width="1.82" height="160.06"/><rect class="cls-76" x="369.54" y="234.39" width="9.13" height="160.06"/></g><path class="cls-2" d="M471.26,748.15,371.19,664.59l-99.43-83a34.44,34.44,0,1,0-44.14,52.88l12.81,10.69,140,116.91C418.35,762.59,451.41,754.48,471.26,748.15Z" transform="translate(-215.25 -202)"/><g class="cls-79"><polygon class="cls-4" points="419.46 520.16 382.11 498.6 419.46 498.6 419.46 520.16"/><polygon class="cls-4" points="419.46 522.77 377.6 498.6 382.11 498.6 419.46 520.16 419.46 522.77"/><polygon class="cls-5" points="419.46 525.37 373.08 498.6 377.6 498.6 419.46 522.77 419.46 525.37"/><polygon class="cls-6" points="419.46 527.98 368.57 498.6 373.08 498.6 419.46 525.37 419.46 527.98"/><polygon class="cls-7" points="419.46 530.59 364.05 498.6 368.57 498.6 419.46 527.98 419.46 530.59"/><polygon class="cls-8" points="419.46 533.19 359.54 498.6 364.05 498.6 419.46 530.59 419.46 533.19"/><polygon class="cls-9" points="419.46 535.8 355.02 498.6 359.54 498.6 419.46 533.19 419.46 535.8"/><polygon class="cls-10" points="419.46 538.4 350.51 498.6 355.02 498.6 419.46 535.8 419.46 538.4"/><polygon class="cls-11" points="419.46 541.01 346 498.6 350.51 498.6 419.46 538.4 419.46 541.01"/><polygon class="cls-12" points="419.46 543.62 341.48 498.6 346 498.6 419.46 541.01 419.46 543.62"/><polygon class="cls-13" points="419.46 546.22 336.97 498.6 341.48 498.6 419.46 543.62 419.46 546.22"/><polygon class="cls-14" points="419.46 548.83 332.45 498.6 336.97 498.6 419.46 546.22 419.46 548.83"/><polygon class="cls-15" points="419.46 551.38 419.44 551.42 327.94 498.6 332.45 498.6 419.46 548.83 419.46 551.38"/><polygon class="cls-16" points="419.44 551.42 418.31 553.38 323.42 498.6 327.94 498.6 419.44 551.42"/><polygon class="cls-17" points="418.31 553.38 417.18 555.33 318.91 498.6 323.42 498.6 418.31 553.38"/><polygon class="cls-18" points="417.18 555.33 416.05 557.29 314.39 498.6 318.91 498.6 417.18 555.33"/><polygon class="cls-19" points="416.05 557.29 414.92 559.24 309.88 498.6 314.39 498.6 416.05 557.29"/><polygon class="cls-20" points="414.92 559.24 413.8 561.2 305.37 498.6 309.88 498.6 414.92 559.24"/><polygon class="cls-21" points="413.8 561.2 412.67 563.15 300.85 498.6 305.37 498.6 413.8 561.2"/><polygon class="cls-22" points="412.67 563.15 411.54 565.11 296.34 498.6 300.85 498.6 412.67 563.15"/><polygon class="cls-23" points="411.54 565.11 410.41 567.06 291.82 498.6 296.34 498.6 411.54 565.11"/><polygon class="cls-24" points="410.41 567.06 409.28 569.02 287.31 498.6 291.82 498.6 410.41 567.06"/><polygon class="cls-25" points="409.28 569.02 408.15 570.97 282.79 498.6 287.31 498.6 409.28 569.02"/><polygon class="cls-26" points="408.15 570.97 407.02 572.93 278.28 498.6 282.79 498.6 408.15 570.97"/><polygon class="cls-27" points="407.02 572.93 405.89 574.88 273.76 498.6 278.28 498.6 407.02 572.93"/><polygon class="cls-28" points="405.89 574.88 404.77 576.84 269.25 498.6 273.76 498.6 405.89 574.88"/><polygon class="cls-29" points="404.77 576.84 403.64 578.79 264.73 498.6 269.25 498.6 404.77 576.84"/><polygon class="cls-30" points="403.64 578.79 402.51 580.75 260.22 498.6 264.73 498.6 403.64 578.79"/><polygon class="cls-31" points="402.51 580.75 401.38 582.7 255.71 498.6 260.22 498.6 402.51 580.75"/><polygon class="cls-32" points="401.38 582.7 400.25 584.66 251.19 498.6 255.71 498.6 401.38 582.7"/><polygon class="cls-33" points="400.25 584.66 399.12 586.61 246.68 498.6 251.19 498.6 400.25 584.66"/><polygon class="cls-34" points="399.12 586.61 397.99 588.57 242.16 498.6 246.68 498.6 399.12 586.61"/><polygon class="cls-35" points="397.99 588.57 396.87 590.52 237.65 498.6 242.16 498.6 397.99 588.57"/><polygon class="cls-36" points="396.87 590.52 395.74 592.48 233.13 498.6 237.65 498.6 396.87 590.52"/><polygon class="cls-37" points="395.74 592.48 394.61 594.43 228.62 498.6 233.13 498.6 395.74 592.48"/><polygon class="cls-38" points="394.61 594.43 393.48 596.38 224.1 498.6 228.62 498.6 394.61 594.43"/><polygon class="cls-39" points="393.48 596.38 392.35 598.34 219.59 498.6 224.1 498.6 393.48 596.38"/><polygon class="cls-40" points="392.35 598.34 391.22 600.29 215.07 498.6 219.59 498.6 392.35 598.34"/><polygon class="cls-41" points="391.22 600.29 390.09 602.25 210.56 498.6 215.07 498.6 391.22 600.29"/><polygon class="cls-42" points="390.09 602.25 388.96 604.21 206.04 498.6 210.56 498.6 390.09 602.25"/><polygon class="cls-43" points="388.96 604.21 387.84 606.16 201.53 498.6 206.04 498.6 388.96 604.21"/><polygon class="cls-44" points="387.84 606.16 386.71 608.11 197.02 498.6 201.53 498.6 387.84 606.16"/><polygon class="cls-45" points="386.71 608.11 385.58 610.07 192.5 498.6 197.02 498.6 386.71 608.11"/><polygon class="cls-46" points="385.58 610.07 384.45 612.02 187.99 498.6 192.5 498.6 385.58 610.07"/><polygon class="cls-47" points="384.45 612.02 383.32 613.98 183.47 498.6 187.99 498.6 384.45 612.02"/><polygon class="cls-48" points="383.32 613.98 382.19 615.93 178.96 498.6 183.47 498.6 383.32 613.98"/><polygon class="cls-49" points="382.19 615.93 381.06 617.89 174.44 498.6 178.96 498.6 382.19 615.93"/><polygon class="cls-50" points="381.06 617.89 379.94 619.84 169.93 498.6 174.44 498.6 381.06 617.89"/><polygon class="cls-51" points="379.94 619.84 378.81 621.8 165.43 498.61 165.44 498.6 169.93 498.6 379.94 619.84"/><polygon class="cls-52" points="378.81 621.8 378.62 622.13 374.87 622.13 164.3 500.56 165.43 498.61 378.81 621.8"/><polygon class="cls-53" points="370.35 622.13 163.18 502.52 164.3 500.56 374.87 622.13 370.35 622.13"/><polygon class="cls-54" points="365.84 622.13 162.05 504.47 163.18 502.52 370.35 622.13 365.84 622.13"/><polygon class="cls-55" points="361.32 622.13 160.92 506.43 162.05 504.47 365.84 622.13 361.32 622.13"/><polygon class="cls-56" points="356.81 622.13 159.79 508.38 160.92 506.43 361.32 622.13 356.81 622.13"/><polygon class="cls-57" points="352.3 622.13 158.66 510.34 159.79 508.38 356.81 622.13 352.3 622.13"/><polygon class="cls-58" points="347.78 622.13 157.53 512.29 158.66 510.34 352.3 622.13 347.78 622.13"/><polygon class="cls-59" points="343.27 622.13 156.4 514.25 157.53 512.29 347.78 622.13 343.27 622.13"/><polygon class="cls-60" points="338.75 622.13 155.28 516.2 156.4 514.25 343.27 622.13 338.75 622.13"/><polygon class="cls-61" points="334.24 622.13 154.15 518.15 155.28 516.2 338.75 622.13 334.24 622.13"/><polygon class="cls-62" points="329.72 622.13 153.02 520.11 154.15 518.15 334.24 622.13 329.72 622.13"/><polygon class="cls-62" points="325.21 622.13 151.89 522.07 153.02 520.11 329.72 622.13 325.21 622.13"/><polygon class="cls-63" points="320.69 622.13 150.76 524.02 151.89 522.07 325.21 622.13 320.69 622.13"/><polygon class="cls-64" points="316.18 622.13 149.63 525.97 150.76 524.02 320.69 622.13 316.18 622.13"/><polygon class="cls-65" points="311.67 622.13 148.5 527.93 149.63 525.97 316.18 622.13 311.67 622.13"/><polygon class="cls-66" points="307.15 622.13 147.38 529.88 148.5 527.93 311.67 622.13 307.15 622.13"/><polygon class="cls-67" points="302.64 622.13 146.25 531.84 147.38 529.88 307.15 622.13 302.64 622.13"/><polygon class="cls-67" points="298.12 622.13 145.12 533.79 146.25 531.84 302.64 622.13 298.12 622.13"/><polygon class="cls-68" points="293.61 622.13 143.99 535.75 145.12 533.79 298.12 622.13 293.61 622.13"/><polygon class="cls-69" points="289.09 622.13 142.86 537.7 143.99 535.75 293.61 622.13 289.09 622.13"/><polygon class="cls-70" points="284.58 622.13 142.84 540.3 142.84 537.74 142.86 537.7 289.09 622.13 284.58 622.13"/><polygon class="cls-71" points="280.06 622.13 142.84 542.9 142.84 540.3 284.58 622.13 280.06 622.13"/><polygon class="cls-72" points="275.55 622.13 142.84 545.51 142.84 542.9 280.06 622.13 275.55 622.13"/><polygon class="cls-73" points="271.03 622.13 142.84 548.12 142.84 545.51 275.55 622.13 271.03 622.13"/><polygon class="cls-73" points="266.52 622.13 142.84 550.72 142.84 548.12 271.03 622.13 266.52 622.13"/><polygon class="cls-74" points="262 622.13 142.84 553.33 142.84 550.72 266.52 622.13 262 622.13"/><polygon class="cls-75" points="257.49 622.13 142.84 555.94 142.84 553.33 262 622.13 257.49 622.13"/><polygon class="cls-75" points="252.98 622.13 142.84 558.54 142.84 555.94 257.49 622.13 252.98 622.13"/><polygon class="cls-76" points="248.46 622.13 142.84 561.15 142.84 558.54 252.98 622.13 248.46 622.13"/><polygon class="cls-76" points="243.95 622.13 142.84 563.76 142.84 561.15 248.46 622.13 243.95 622.13"/><polygon class="cls-76" points="142.84 563.76 243.95 622.13 142.84 622.13 142.84 563.76"/></g></svg>