<svg width="24" height="24" viewBox="0 0 24 24" fill="none" xmlns="http://www.w3.org/2000/svg">
<path d="M22.7143 12.8571C22.7143 13.0891 22.6294 13.29 22.4597 13.4597C22.29 13.6294 22.0891 13.7143 21.8571 13.7143H18.8571C18.8571 15.2411 18.558 16.5357 17.9597 17.598L20.7454 20.3974C20.9151 20.5671 21 20.768 21 21C21 21.232 20.9151 21.4329 20.7454 21.6026C20.5848 21.7723 20.384 21.8571 20.1428 21.8571C19.9017 21.8571 19.7008 21.7723 19.5403 21.6026L16.8883 18.9643C16.8437 19.0088 16.7769 19.0668 16.6877 19.1383C16.5986 19.2097 16.4112 19.3369 16.1255 19.5197C15.8398 19.7026 15.5495 19.8654 15.2546 20.0083C14.9597 20.1512 14.5937 20.2806 14.1566 20.3966C13.7195 20.5126 13.2863 20.5706 12.8571 20.5706V8.57058H11.1429V20.5706C10.6874 20.5706 10.2343 20.5103 9.78343 20.3897C9.33258 20.2691 8.94429 20.1217 8.61859 19.9474C8.29289 19.7732 7.99832 19.5992 7.73488 19.4254C7.47144 19.2517 7.27715 19.1065 7.15201 18.99L6.95143 18.8023L4.50088 21.5743C4.32202 21.7617 4.10773 21.8554 3.85801 21.8554C3.64373 21.8554 3.45173 21.784 3.28201 21.6411C3.11229 21.4806 3.02086 21.282 3.00772 21.0454C2.99458 20.8088 3.06372 20.6011 3.21515 20.4223L5.9203 17.382C5.40258 16.3643 5.14372 15.1411 5.14372 13.7126H2.14372C1.91172 13.7126 1.71086 13.6277 1.54115 13.458C1.37143 13.2883 1.28657 13.0874 1.28659 12.8554C1.28661 12.6234 1.37146 12.4226 1.54115 12.2528C1.71083 12.0831 1.91169 11.9983 2.14372 11.9983H5.14372V8.06055L2.82688 5.74371C2.65716 5.57399 2.5723 5.37313 2.5723 5.14113C2.5723 4.90913 2.65716 4.70827 2.82688 4.53855C2.9966 4.36883 3.19746 4.28398 3.42946 4.284C3.66146 4.28401 3.86231 4.36887 4.03201 4.53857L6.34888 6.85542H17.6529L19.9697 4.53857C20.1394 4.36886 20.3403 4.284 20.5723 4.284C20.8043 4.284 21.0052 4.36886 21.1749 4.53857C21.3446 4.70829 21.4294 4.90915 21.4294 5.14115C21.4294 5.37315 21.3446 5.57401 21.1749 5.74373L18.858 8.06058V11.9983H21.858C22.09 11.9983 22.2909 12.0831 22.4606 12.2529C22.6303 12.4226 22.7152 12.6234 22.7151 12.8554L22.7143 12.8571Z" fill="#0A6CFF" style="fill:#0A6CFF;fill:color(display-p3 0.0400 0.4240 1.0000);fill-opacity:1;"/>
<path d="M16.2852 5.14267H7.71381C7.71381 3.95523 8.13123 2.94408 8.96607 2.10922C9.80092 1.27436 10.8121 0.856934 11.9995 0.856934C13.187 0.856934 14.1981 1.27436 15.0329 2.1092C15.8678 2.94404 16.2852 3.95521 16.2852 5.14267Z" fill="#27C8FF" style="fill:#27C8FF;fill:color(display-p3 0.1529 0.7843 1.0000);fill-opacity:1;"/>
</svg>
